<svg xmlns="http://www.w3.org/2000/svg" xmlns:xlink="http://www.w3.org/1999/xlink" width="100" zoomAndPan="magnify" viewBox="0 0 75 74.999997" height="100" preserveAspectRatio="xMidYMid meet" version="1.0"><defs><clipPath id="id1"><path d="M 0 0.398438 L 74.25 0.398438 L 74.25 74.648438 L 0 74.648438 Z M 0 0.398438 " clip-rule="nonzero"/></clipPath></defs><g clip-path="url(#id1)"><path fill="#19ff81" d="M 72.644531 35.917969 L 62.945312 35.917969 L 62.875 35.152344 C 61.742188 22.738281 51.910156 12.90625 39.496094 11.773438 L 38.730469 11.703125 L 38.730469 2.003906 C 38.730469 1.117188 38.011719 0.398438 37.125 0.398438 C 36.238281 0.398438 35.519531 1.117188 35.519531 2.003906 L 35.519531 11.703125 L 34.753906 11.773438 C 22.339844 12.90625 12.507812 22.738281 11.375 35.152344 L 11.304688 35.917969 L 1.605469 35.917969 C 0.71875 35.917969 0 36.636719 0 37.523438 C 0 38.410156 0.71875 39.128906 1.605469 39.128906 L 11.304688 39.128906 L 11.375 39.898438 C 12.507812 52.308594 22.339844 62.140625 34.753906 63.273438 L 35.519531 63.34375 L 35.519531 73.042969 C 35.519531 73.929688 36.238281 74.648438 37.125 74.648438 C 38.011719 74.648438 38.730469 73.929688 38.730469 73.042969 L 38.730469 63.34375 L 39.5 63.273438 C 51.910156 62.140625 61.742188 52.308594 62.875 39.898438 L 62.945312 39.128906 L 72.644531 39.128906 C 73.53125 39.128906 74.25 38.410156 74.25 37.523438 C 74.25 36.636719 73.53125 35.917969 72.644531 35.917969 Z M 50.121094 39.128906 L 59.738281 39.128906 L 59.632812 40.066406 C 58.464844 50.464844 50.066406 58.863281 39.667969 60.03125 L 38.730469 60.132812 L 38.730469 50.519531 C 38.730469 49.636719 38.011719 48.914062 37.125 48.914062 C 36.238281 48.914062 35.519531 49.636719 35.519531 50.519531 L 35.519531 60.132812 L 34.582031 60.03125 C 24.183594 58.859375 15.785156 50.464844 14.617188 40.066406 L 14.511719 39.128906 L 24.128906 39.128906 C 25.011719 39.128906 25.734375 38.410156 25.734375 37.523438 C 25.734375 36.636719 25.011719 35.917969 24.128906 35.917969 L 14.511719 35.917969 L 14.617188 34.980469 C 15.785156 24.582031 24.183594 16.1875 34.582031 15.015625 L 35.519531 14.914062 L 35.519531 24.527344 C 35.519531 25.410156 36.238281 26.132812 37.125 26.132812 C 38.011719 26.132812 38.730469 25.410156 38.730469 24.527344 L 38.730469 14.914062 L 39.667969 15.019531 C 50.066406 16.1875 58.464844 24.582031 59.632812 34.980469 L 59.738281 35.917969 L 50.121094 35.917969 C 49.238281 35.917969 48.515625 36.636719 48.515625 37.523438 C 48.515625 38.410156 49.238281 39.128906 50.121094 39.128906 Z M 50.121094 39.128906 " fill-opacity="1" fill-rule="nonzero"/></g><path fill="#19ff81" d="M 37.125 33.46875 C 34.890625 33.46875 33.070312 35.289062 33.070312 37.523438 C 33.070312 39.761719 34.890625 41.578125 37.125 41.578125 C 39.359375 41.578125 41.179688 39.761719 41.179688 37.523438 C 41.179688 35.289062 39.359375 33.46875 37.125 33.46875 Z M 37.125 33.46875 " fill-opacity="1" fill-rule="nonzero"/></svg>