<svg xmlns="http://www.w3.org/2000/svg" xmlns:xlink="http://www.w3.org/1999/xlink" width="100" zoomAndPan="magnify" viewBox="0 0 75 74.999997" height="100" preserveAspectRatio="xMidYMid meet" version="1.0"><defs><clipPath id="id1"><path d="M 60 24 L 69.546875 24 L 69.546875 53 L 60 53 Z M 60 24 " clip-rule="nonzero"/></clipPath></defs><path fill="#19ff81" d="M 24.75 0.78125 L 28.132812 6.785156 C 21.847656 9.90625 17.5 15.886719 17.5 22.878906 L 58.074219 22.878906 C 58.074219 15.914062 53.730469 9.910156 47.449219 6.785156 L 50.832031 0.78125 C 50.832031 0.78125 51.074219 0.539062 50.589844 0.300781 C 50.347656 0.0585938 50.105469 0.539062 50.105469 0.539062 L 46.480469 6.546875 C 43.636719 5.277344 40.660156 4.636719 37.542969 4.625 C 34.425781 4.636719 31.449219 5.277344 28.605469 6.546875 L 24.988281 0.542969 C 24.988281 0.542969 24.75 0.304688 24.503906 0.304688 C 24.53125 0.492188 24.609375 0.652344 24.746094 0.785156 Z M 28.15625 12.546875 C 29.09375 12.546875 30.085938 13.480469 30.085938 14.46875 C 30.085938 15.453125 29.148438 16.386719 28.15625 16.386719 C 27.898438 16.390625 27.648438 16.34375 27.410156 16.25 C 27.171875 16.152344 26.964844 16.015625 26.78125 15.832031 C 26.597656 15.652344 26.460938 15.445312 26.363281 15.207031 C 26.265625 14.96875 26.21875 14.722656 26.222656 14.46875 C 26.21875 14.210938 26.265625 13.964844 26.363281 13.726562 C 26.460938 13.492188 26.597656 13.28125 26.78125 13.101562 C 26.964844 12.917969 27.171875 12.78125 27.410156 12.683594 C 27.648438 12.589844 27.898438 12.542969 28.15625 12.546875 Z M 47.476562 12.546875 C 48.417969 12.546875 49.40625 13.480469 49.40625 14.46875 C 49.40625 15.453125 48.46875 16.386719 47.476562 16.386719 C 47.21875 16.390625 46.972656 16.34375 46.734375 16.25 C 46.496094 16.152344 46.285156 16.015625 46.101562 15.832031 C 45.921875 15.652344 45.78125 15.445312 45.683594 15.207031 C 45.589844 14.96875 45.542969 14.722656 45.546875 14.46875 C 45.542969 14.210938 45.589844 13.964844 45.683594 13.726562 C 45.78125 13.492188 45.921875 13.28125 46.101562 13.101562 C 46.285156 12.917969 46.496094 12.78125 46.734375 12.683594 C 46.972656 12.589844 47.21875 12.542969 47.476562 12.546875 Z M 17.257812 25.28125 L 17.257812 56.027344 C 17.257812 57.46875 19.191406 59.628906 20.640625 59.628906 L 25.472656 59.628906 L 25.472656 70.199219 C 25.472656 72.839844 27.402344 75.003906 29.820312 75.003906 C 32.234375 75.003906 34.164062 72.839844 34.164062 70.199219 L 34.164062 59.625 L 41.167969 59.625 L 41.167969 70.195312 C 41.167969 72.835938 43.097656 74.996094 45.511719 74.996094 C 47.929688 74.996094 49.859375 72.835938 49.859375 70.195312 L 49.859375 59.625 L 54.691406 59.625 C 56.140625 59.625 58.074219 57.707031 58.074219 56.023438 L 58.074219 25.28125 Z M 17.257812 25.28125 " fill-opacity="1" fill-rule="nonzero"/><path fill="#19ff81" d="M 10.496094 24.5625 C 12.910156 24.5625 14.839844 26.722656 14.839844 29.363281 L 14.839844 47.621094 C 14.839844 50.257812 12.910156 52.421875 10.496094 52.421875 C 8.078125 52.421875 6.148438 50.261719 6.148438 47.621094 L 6.148438 29.363281 C 6.148438 26.722656 8.078125 24.5625 10.496094 24.5625 Z M 10.496094 24.5625 " fill-opacity="1" fill-rule="nonzero"/><g clip-path="url(#id1)"><path fill="#19ff81" d="M 65.082031 24.5625 C 67.496094 24.5625 69.425781 26.722656 69.425781 29.363281 L 69.425781 47.621094 C 69.425781 50.257812 67.496094 52.421875 65.082031 52.421875 C 62.664062 52.421875 60.734375 50.261719 60.734375 47.621094 L 60.734375 29.363281 C 60.734375 26.722656 62.664062 24.5625 65.082031 24.5625 Z M 65.082031 24.5625 " fill-opacity="1" fill-rule="nonzero"/></g></svg>