<svg xmlns="http://www.w3.org/2000/svg" xmlns:xlink="http://www.w3.org/1999/xlink" width="100" zoomAndPan="magnify" viewBox="0 0 75 74.999997" height="100" preserveAspectRatio="xMidYMid meet" version="1.0"><defs><clipPath id="id1"><path d="M 1.59375 0 L 73.59375 0 L 73.59375 75 L 1.59375 75 Z M 1.59375 0 " clip-rule="nonzero"/></clipPath></defs><g clip-path="url(#id1)"><path fill="#19ff81" d="M 37.5625 0.0507812 C 37.382812 0.0507812 37.199219 0.0820312 37.027344 0.140625 L 2.855469 12.003906 C 2.128906 12.253906 1.675781 12.976562 1.769531 13.734375 L 7.171875 57.902344 C 7.234375 58.425781 7.542969 58.886719 8.011719 59.136719 L 36.824219 74.757812 C 37.066406 74.886719 37.335938 74.953125 37.601562 74.953125 C 37.871094 74.953125 38.144531 74.886719 38.386719 74.753906 L 67.347656 58.921875 C 67.808594 58.667969 68.121094 58.210938 68.183594 57.691406 L 73.582031 13.527344 C 73.675781 12.761719 73.21875 12.035156 72.484375 11.785156 L 38.089844 0.132812 C 37.917969 0.0742188 37.738281 0.0507812 37.5625 0.0507812 Z M 37.675781 8.1875 L 58.898438 53.785156 L 51.65625 53.785156 L 47.113281 44.027344 L 28.238281 44.027344 L 23.695312 53.785156 L 16.449219 53.785156 Z M 37.675781 23.660156 L 31.277344 37.5 L 44.074219 37.5 Z M 37.675781 23.660156 " fill-opacity="1" fill-rule="nonzero"/></g></svg>