<svg xmlns="http://www.w3.org/2000/svg" xmlns:xlink="http://www.w3.org/1999/xlink" width="100" zoomAndPan="magnify" viewBox="0 0 75 74.999997" height="100" preserveAspectRatio="xMidYMid meet" version="1.0"><defs><clipPath id="id1"><path d="M 7.5 0 L 67.5 0 L 67.5 75 L 7.5 75 Z M 7.5 0 " clip-rule="nonzero"/></clipPath></defs><path fill="#19ff81" d="M 9.707031 2.191406 L 65.292969 2.191406 L 65.292969 72.808594 L 9.707031 72.808594 Z M 9.707031 2.191406 " fill-opacity="1" fill-rule="nonzero"/><g clip-path="url(#id1)"><path stroke-linecap="round" transform="matrix(0.17569, 0, 0, 0.175306, -161.918731, 16.688567)" fill="none" stroke-linejoin="round" d="M 976.869391 -82.696275 L 1293.256629 -82.696275 L 1293.256629 320.125935 L 976.869391 320.125935 Z M 976.869391 -82.696275 " stroke="#2d2d2d" stroke-width="25" stroke-opacity="1" stroke-miterlimit="4"/></g><path fill="#0e2b0d" d="M 15.148438 7.519531 L 32.914062 7.519531 L 32.914062 25.453125 L 15.148438 25.453125 Z M 15.148438 7.519531 " fill-opacity="1" fill-rule="nonzero"/><path fill="#00735c" d="M 24.066406 19.316406 C 23.179688 19.320312 22.3125 19.457031 21.453125 19.734375 C 20.597656 20.011719 19.785156 20.417969 19.015625 20.949219 C 18.246094 21.484375 17.539062 22.128906 16.90625 22.882812 C 16.269531 23.640625 15.722656 24.484375 15.261719 25.414062 L 32.875 25.414062 C 32.414062 24.484375 31.867188 23.640625 31.230469 22.882812 C 30.59375 22.128906 29.890625 21.484375 29.121094 20.949219 C 28.347656 20.414062 27.535156 20.011719 26.679688 19.734375 C 25.820312 19.457031 24.953125 19.316406 24.066406 19.316406 Z M 24.066406 19.316406 " fill-opacity="1" fill-rule="nonzero"/><path fill="#00735c" d="M 29.101562 14.675781 C 29.101562 15.097656 29.066406 15.519531 29 15.933594 C 28.929688 16.347656 28.832031 16.75 28.699219 17.144531 C 28.566406 17.535156 28.40625 17.90625 28.214844 18.257812 C 28.023438 18.609375 27.804688 18.9375 27.5625 19.234375 C 27.316406 19.535156 27.054688 19.800781 26.765625 20.039062 C 26.480469 20.273438 26.175781 20.472656 25.859375 20.632812 C 25.539062 20.796875 25.210938 20.917969 24.875 21 C 24.535156 21.082031 24.195312 21.125 23.851562 21.125 C 23.503906 21.125 23.164062 21.082031 22.824219 21 C 22.488281 20.917969 22.160156 20.796875 21.839844 20.632812 C 21.523438 20.472656 21.21875 20.273438 20.933594 20.039062 C 20.644531 19.800781 20.382812 19.535156 20.136719 19.234375 C 19.894531 18.9375 19.675781 18.609375 19.484375 18.257812 C 19.292969 17.90625 19.132812 17.535156 19 17.144531 C 18.867188 16.75 18.769531 16.347656 18.699219 15.933594 C 18.632812 15.519531 18.597656 15.097656 18.597656 14.675781 C 18.597656 14.25 18.632812 13.832031 18.699219 13.417969 C 18.769531 13 18.867188 12.597656 19 12.207031 C 19.132812 11.816406 19.292969 11.445312 19.484375 11.09375 C 19.675781 10.738281 19.894531 10.414062 20.136719 10.113281 C 20.382812 9.816406 20.644531 9.546875 20.933594 9.3125 C 21.21875 9.078125 21.523438 8.878906 21.839844 8.714844 C 22.160156 8.554688 22.488281 8.433594 22.824219 8.351562 C 23.164062 8.265625 23.503906 8.226562 23.851562 8.226562 C 24.195312 8.226562 24.535156 8.265625 24.875 8.351562 C 25.210938 8.433594 25.539062 8.554688 25.859375 8.714844 C 26.175781 8.878906 26.480469 9.078125 26.765625 9.3125 C 27.054688 9.546875 27.316406 9.816406 27.5625 10.113281 C 27.804688 10.414062 28.023438 10.738281 28.214844 11.09375 C 28.40625 11.445312 28.566406 11.816406 28.699219 12.207031 C 28.832031 12.597656 28.929688 13 29 13.417969 C 29.066406 13.832031 29.101562 14.25 29.101562 14.675781 Z M 29.101562 14.675781 " fill-opacity="1" fill-rule="nonzero"/><path fill="#0e2b0d" d="M 38.257812 7.625 L 58.804688 7.625 C 58.980469 7.625 59.152344 7.667969 59.3125 7.757812 C 59.476562 7.84375 59.621094 7.972656 59.746094 8.136719 C 59.871094 8.300781 59.964844 8.492188 60.035156 8.707031 C 60.101562 8.921875 60.136719 9.144531 60.136719 9.375 L 60.136719 9.871094 C 60.136719 10.105469 60.101562 10.328125 60.035156 10.542969 C 59.964844 10.757812 59.871094 10.949219 59.746094 11.113281 C 59.621094 11.277344 59.476562 11.402344 59.3125 11.492188 C 59.152344 11.582031 58.980469 11.625 58.804688 11.625 L 38.257812 11.625 C 38.082031 11.625 37.910156 11.582031 37.746094 11.492188 C 37.585938 11.402344 37.441406 11.277344 37.316406 11.113281 C 37.191406 10.949219 37.09375 10.757812 37.027344 10.542969 C 36.960938 10.328125 36.925781 10.105469 36.925781 9.871094 L 36.925781 9.375 C 36.925781 9.144531 36.960938 8.921875 37.027344 8.707031 C 37.09375 8.492188 37.191406 8.300781 37.316406 8.136719 C 37.441406 7.972656 37.585938 7.84375 37.746094 7.757812 C 37.910156 7.667969 38.082031 7.625 38.257812 7.625 Z M 38.257812 7.625 " fill-opacity="1" fill-rule="nonzero"/><path fill="#0e2b0d" d="M 38.398438 14.484375 L 58.945312 14.484375 C 59.121094 14.484375 59.292969 14.527344 59.453125 14.617188 C 59.617188 14.707031 59.761719 14.832031 59.886719 15 C 60.011719 15.164062 60.105469 15.351562 60.175781 15.566406 C 60.242188 15.78125 60.277344 16.003906 60.277344 16.238281 L 60.277344 16.734375 C 60.277344 16.964844 60.242188 17.191406 60.175781 17.40625 C 60.105469 17.621094 60.011719 17.808594 59.886719 17.972656 C 59.761719 18.136719 59.617188 18.265625 59.453125 18.355469 C 59.292969 18.441406 59.121094 18.488281 58.945312 18.488281 L 38.398438 18.488281 C 38.222656 18.488281 38.050781 18.441406 37.886719 18.355469 C 37.726562 18.265625 37.582031 18.136719 37.457031 17.972656 C 37.332031 17.808594 37.234375 17.621094 37.167969 17.40625 C 37.101562 17.191406 37.066406 16.964844 37.066406 16.734375 L 37.066406 16.238281 C 37.066406 16.003906 37.101562 15.78125 37.167969 15.566406 C 37.234375 15.351562 37.332031 15.164062 37.457031 15 C 37.582031 14.832031 37.726562 14.707031 37.886719 14.617188 C 38.050781 14.527344 38.222656 14.484375 38.398438 14.484375 Z M 38.398438 14.484375 " fill-opacity="1" fill-rule="nonzero"/><path fill="#0e2b0d" d="M 17.265625 29.066406 L 56.585938 29.066406 C 56.921875 29.066406 57.246094 29.109375 57.558594 29.199219 C 57.871094 29.289062 58.144531 29.414062 58.386719 29.578125 C 58.625 29.742188 58.808594 29.933594 58.9375 30.148438 C 59.066406 30.363281 59.128906 30.585938 59.128906 30.820312 L 59.128906 31.316406 C 59.128906 31.546875 59.066406 31.769531 58.9375 31.984375 C 58.808594 32.199219 58.625 32.390625 58.386719 32.554688 C 58.144531 32.71875 57.871094 32.84375 57.558594 32.933594 C 57.246094 33.023438 56.921875 33.066406 56.585938 33.066406 L 17.265625 33.066406 C 16.925781 33.066406 16.601562 33.023438 16.289062 32.933594 C 15.980469 32.84375 15.703125 32.71875 15.464844 32.554688 C 15.226562 32.390625 15.042969 32.199219 14.914062 31.984375 C 14.785156 31.769531 14.71875 31.546875 14.71875 31.316406 L 14.71875 30.820312 C 14.71875 30.585938 14.785156 30.363281 14.914062 30.148438 C 15.042969 29.933594 15.226562 29.742188 15.464844 29.578125 C 15.703125 29.414062 15.980469 29.289062 16.289062 29.199219 C 16.601562 29.109375 16.925781 29.066406 17.265625 29.066406 Z M 17.265625 29.066406 " fill-opacity="1" fill-rule="nonzero"/><path fill="#0e2b0d" d="M 17.265625 37.355469 L 56.585938 37.355469 C 56.921875 37.355469 57.246094 37.398438 57.558594 37.488281 C 57.871094 37.578125 58.144531 37.703125 58.386719 37.867188 C 58.625 38.035156 58.808594 38.222656 58.9375 38.4375 C 59.066406 38.652344 59.128906 38.875 59.128906 39.109375 L 59.128906 39.605469 C 59.128906 39.835938 59.066406 40.0625 58.9375 40.277344 C 58.808594 40.492188 58.625 40.679688 58.386719 40.84375 C 58.144531 41.007812 57.871094 41.136719 57.558594 41.222656 C 57.246094 41.3125 56.921875 41.359375 56.585938 41.359375 L 17.265625 41.359375 C 16.925781 41.359375 16.601562 41.3125 16.289062 41.222656 C 15.980469 41.136719 15.703125 41.007812 15.464844 40.84375 C 15.226562 40.679688 15.042969 40.492188 14.914062 40.277344 C 14.785156 40.0625 14.71875 39.835938 14.71875 39.605469 L 14.71875 39.109375 C 14.71875 38.875 14.785156 38.652344 14.914062 38.4375 C 15.042969 38.222656 15.226562 38.035156 15.464844 37.867188 C 15.703125 37.703125 15.980469 37.578125 16.289062 37.488281 C 16.601562 37.398438 16.925781 37.355469 17.265625 37.355469 Z M 17.265625 37.355469 " fill-opacity="1" fill-rule="nonzero"/><path fill="#0e2b0d" d="M 17.265625 45.074219 L 56.585938 45.074219 C 56.921875 45.074219 57.246094 45.121094 57.558594 45.210938 C 57.871094 45.296875 58.144531 45.425781 58.386719 45.589844 C 58.625 45.753906 58.808594 45.941406 58.9375 46.15625 C 59.066406 46.371094 59.128906 46.597656 59.128906 46.828125 L 59.128906 47.324219 C 59.128906 47.558594 59.066406 47.78125 58.9375 47.996094 C 58.808594 48.210938 58.625 48.402344 58.386719 48.566406 C 58.144531 48.730469 57.871094 48.855469 57.558594 48.945312 C 57.246094 49.035156 56.921875 49.078125 56.585938 49.078125 L 17.265625 49.078125 C 16.925781 49.078125 16.601562 49.035156 16.289062 48.945312 C 15.980469 48.855469 15.703125 48.730469 15.464844 48.566406 C 15.226562 48.402344 15.042969 48.210938 14.914062 47.996094 C 14.785156 47.78125 14.71875 47.558594 14.71875 47.324219 L 14.71875 46.828125 C 14.71875 46.597656 14.785156 46.371094 14.914062 46.15625 C 15.042969 45.941406 15.226562 45.753906 15.464844 45.589844 C 15.703125 45.425781 15.980469 45.296875 16.289062 45.210938 C 16.601562 45.121094 16.925781 45.074219 17.265625 45.074219 Z M 17.265625 45.074219 " fill-opacity="1" fill-rule="nonzero"/><path fill="#0e2b0d" d="M 16.03125 53.367188 L 36.328125 53.367188 C 36.503906 53.367188 36.667969 53.410156 36.832031 53.5 C 36.992188 53.589844 37.132812 53.714844 37.257812 53.878906 C 37.378906 54.042969 37.476562 54.234375 37.542969 54.449219 C 37.609375 54.664062 37.640625 54.886719 37.640625 55.121094 L 37.640625 55.617188 C 37.640625 55.847656 37.609375 56.070312 37.542969 56.285156 C 37.476562 56.5 37.378906 56.691406 37.257812 56.855469 C 37.132812 57.019531 36.992188 57.144531 36.832031 57.234375 C 36.667969 57.324219 36.503906 57.367188 36.328125 57.367188 L 16.03125 57.367188 C 15.859375 57.367188 15.691406 57.324219 15.53125 57.234375 C 15.371094 57.144531 15.226562 57.019531 15.105469 56.855469 C 14.980469 56.691406 14.886719 56.5 14.820312 56.285156 C 14.753906 56.070312 14.71875 55.847656 14.71875 55.617188 L 14.71875 55.121094 C 14.71875 54.886719 14.753906 54.664062 14.820312 54.449219 C 14.886719 54.234375 14.980469 54.042969 15.105469 53.878906 C 15.226562 53.714844 15.371094 53.589844 15.53125 53.5 C 15.691406 53.410156 15.859375 53.367188 16.03125 53.367188 Z M 16.03125 53.367188 " fill-opacity="1" fill-rule="nonzero"/><path fill="#0e2b0d" d="M 45.992188 63.371094 L 56.804688 63.371094 C 57.039062 63.371094 57.261719 63.417969 57.476562 63.507812 C 57.691406 63.59375 57.882812 63.722656 58.046875 63.886719 C 58.210938 64.050781 58.339844 64.238281 58.425781 64.453125 C 58.515625 64.667969 58.5625 64.894531 58.5625 65.125 L 58.5625 65.621094 C 58.5625 65.855469 58.515625 66.078125 58.425781 66.292969 C 58.339844 66.507812 58.210938 66.699219 58.046875 66.863281 C 57.882812 67.027344 57.691406 67.152344 57.476562 67.242188 C 57.261719 67.332031 57.039062 67.375 56.804688 67.375 L 45.992188 67.375 C 45.757812 67.375 45.535156 67.332031 45.320312 67.242188 C 45.105469 67.152344 44.914062 67.027344 44.75 66.863281 C 44.585938 66.699219 44.457031 66.507812 44.367188 66.292969 C 44.28125 66.078125 44.234375 65.855469 44.234375 65.621094 L 44.234375 65.125 C 44.234375 64.894531 44.28125 64.667969 44.367188 64.453125 C 44.457031 64.238281 44.585938 64.050781 44.75 63.886719 C 44.914062 63.722656 45.105469 63.59375 45.320312 63.507812 C 45.535156 63.417969 45.757812 63.371094 45.992188 63.371094 Z M 45.992188 63.371094 " fill-opacity="1" fill-rule="nonzero"/></svg>