<svg xmlns="http://www.w3.org/2000/svg" xmlns:xlink="http://www.w3.org/1999/xlink" width="100" zoomAndPan="magnify" viewBox="0 0 75 74.999997" height="100" preserveAspectRatio="xMidYMid meet" version="1.0"><defs><clipPath id="id1"><path d="M 0 12.046875 L 73.242188 12.046875 L 73.242188 63.046875 L 0 63.046875 Z M 0 12.046875 " clip-rule="nonzero"/></clipPath></defs><g clip-path="url(#id1)"><path fill="#19ff81" d="M -0.0898438 15.515625 C -0.0585938 15.410156 -0.015625 15.332031 0.00390625 15.300781 C 0.0429688 15.234375 0.105469 15.132812 0.230469 15.054688 C 0.273438 15.027344 0.3125 15.011719 0.351562 14.996094 C 0.378906 14.988281 0.398438 14.964844 0.40625 14.9375 C 0.425781 14.824219 0.46875 14.660156 0.535156 14.472656 C 0.605469 14.273438 0.648438 14.160156 0.753906 14.039062 C 0.910156 13.859375 1.097656 13.78125 1.164062 13.753906 C 1.246094 13.722656 1.320312 13.703125 1.425781 13.683594 C 1.554688 13.664062 1.730469 13.636719 1.945312 13.628906 L 2.128906 13.628906 C 2.152344 13.628906 2.175781 13.617188 2.191406 13.597656 L 3.25 12.339844 C 3.308594 12.269531 3.398438 12.226562 3.488281 12.226562 L 4.246094 12.226562 C 4.378906 12.226562 4.496094 12.3125 4.539062 12.4375 L 4.9375 13.574219 C 4.945312 13.605469 4.976562 13.628906 5.011719 13.628906 L 65.128906 13.628906 C 65.164062 13.628906 65.195312 13.605469 65.207031 13.570312 L 65.589844 12.28125 C 65.628906 12.144531 65.753906 12.046875 65.898438 12.046875 L 66.597656 12.046875 C 66.742188 12.046875 66.871094 12.144531 66.910156 12.28125 L 67.292969 13.570312 C 67.300781 13.605469 67.332031 13.628906 67.367188 13.628906 L 68.257812 13.628906 C 68.308594 13.628906 68.355469 13.636719 68.402344 13.652344 L 68.40625 13.652344 C 68.597656 13.714844 68.726562 13.8125 68.789062 13.859375 C 68.84375 13.90625 68.984375 14.03125 69.089844 14.238281 C 69.183594 14.421875 69.207031 14.582031 69.21875 14.699219 L 69.21875 14.703125 C 69.25 14.941406 69.261719 15.179688 69.261719 15.417969 L 69.261719 20.878906 C 69.261719 20.882812 69.261719 20.886719 69.257812 20.894531 C 69.253906 20.902344 69.25 20.90625 69.246094 20.914062 C 69.21875 20.941406 69.1875 20.953125 69.164062 20.960938 C 69.15625 20.964844 69.144531 20.96875 69.136719 20.972656 C 69.097656 20.980469 69.074219 21.011719 69.074219 21.050781 L 69.074219 21.082031 C 69.074219 21.113281 69.089844 21.136719 69.113281 21.152344 C 69.125 21.160156 69.136719 21.167969 69.148438 21.175781 C 69.1875 21.210938 69.210938 21.246094 69.222656 21.261719 C 69.25 21.304688 69.261719 21.355469 69.261719 21.40625 L 69.261719 21.578125 C 69.285156 21.621094 69.308594 21.675781 69.328125 21.738281 C 69.363281 21.851562 69.375 21.949219 69.375 22.023438 L 69.375 22.621094 C 69.453125 22.710938 69.550781 22.839844 69.660156 23 C 69.890625 23.335938 70.015625 23.617188 70.058594 23.710938 C 70.164062 23.949219 70.214844 24.070312 70.238281 24.199219 C 70.25 24.289062 70.304688 24.707031 70.046875 25.09375 C 69.914062 25.292969 69.753906 25.398438 69.699219 25.429688 C 69.625 25.480469 69.496094 25.558594 69.304688 25.582031 C 69.289062 25.582031 69.261719 25.585938 69.261719 25.585938 C 69.214844 25.585938 69.140625 25.589844 69.03125 25.59375 C 68.90625 25.597656 68.480469 25.617188 68.25 25.640625 C 67.6875 25.699219 67.199219 25.898438 66.957031 26 C 66.441406 26.210938 66.085938 26.449219 65.886719 26.582031 C 65.660156 26.734375 65.347656 26.945312 65.003906 27.296875 C 64.722656 27.582031 64.550781 27.824219 64.382812 28.0625 C 64.234375 28.269531 64.109375 28.46875 64.007812 28.644531 C 64.007812 28.644531 63.84375 28.929688 63.769531 29.101562 C 63.457031 29.828125 63.378906 30.421875 63.363281 30.550781 C 63.339844 30.710938 63.300781 31.105469 63.382812 31.914062 C 63.460938 32.660156 63.605469 33.355469 63.820312 34.136719 C 64.0625 35.007812 64.296875 35.609375 64.660156 36.546875 C 64.890625 37.144531 65.253906 38.070312 65.820312 39.261719 C 66.148438 39.957031 66.503906 40.699219 67.058594 41.636719 C 67.515625 42.40625 67.601562 42.457031 68.144531 43.328125 C 68.667969 44.160156 69.023438 44.824219 69.722656 46.125 C 70.484375 47.546875 70.867188 48.257812 71.246094 49.054688 C 72.304688 51.257812 72.605469 52.335938 72.707031 52.753906 C 72.847656 53.320312 72.875 53.4375 73.015625 53.949219 C 73.015625 53.949219 73.195312 54.53125 73.222656 55.097656 C 73.230469 55.234375 73.21875 55.34375 73.179688 55.449219 C 73.144531 55.546875 73.097656 55.617188 73.046875 55.679688 C 72.84375 55.945312 72.601562 56.105469 72.589844 56.113281 C 72.175781 56.382812 71.777344 56.675781 71.355469 56.929688 C 71.164062 57.042969 70.859375 57.226562 70.480469 57.460938 C 70.457031 57.472656 70.441406 57.496094 70.441406 57.523438 C 70.4375 57.558594 70.433594 57.597656 70.425781 57.640625 C 70.417969 57.667969 70.402344 57.699219 70.378906 57.722656 C 70.332031 57.773438 70.277344 57.832031 70.214844 57.890625 C 70.136719 57.957031 70.0625 58.015625 69.996094 58.0625 C 69.96875 58.082031 69.9375 58.09375 69.902344 58.09375 C 69.839844 58.101562 69.75 58.105469 69.652344 58.117188 C 69.386719 58.148438 69.191406 58.191406 69.128906 58.203125 C 68.792969 58.253906 68.460938 58.304688 68.128906 58.355469 C 68.070312 58.363281 68.042969 58.433594 68.074219 58.480469 C 68.175781 58.621094 68.285156 58.769531 68.40625 58.921875 C 68.542969 59.089844 68.679688 59.242188 68.8125 59.382812 C 68.949219 59.519531 69.136719 59.746094 69.261719 60.066406 C 69.300781 60.171875 69.433594 60.535156 69.378906 61 C 69.355469 61.191406 69.332031 61.347656 69.210938 61.488281 C 69.050781 61.667969 68.824219 61.703125 68.738281 61.714844 C 68.539062 61.734375 68.339844 61.753906 68.140625 61.773438 C 63.589844 62.191406 59.039062 62.613281 54.488281 63.03125 C 54.378906 63.042969 54.214844 63.050781 54.023438 63.023438 C 53.773438 62.988281 53.59375 62.90625 53.40625 62.820312 C 53.289062 62.765625 53.097656 62.648438 52.714844 62.417969 C 52.390625 62.214844 52.324219 62.171875 52.234375 62.101562 C 52.0625 61.960938 51.949219 61.867188 51.847656 61.707031 C 51.644531 61.386719 51.652344 61.058594 51.660156 60.941406 C 51.664062 60.832031 51.6875 60.738281 51.707031 60.664062 C 51.71875 60.621094 51.746094 60.585938 51.78125 60.558594 C 51.792969 60.550781 51.804688 60.542969 51.820312 60.535156 C 52.066406 60.371094 52.324219 60.332031 52.460938 60.300781 C 52.574219 60.273438 52.855469 60.207031 53.746094 60.121094 C 53.941406 60.101562 54.128906 60.089844 54.3125 60.078125 C 54.363281 60.074219 54.398438 60.027344 54.386719 59.976562 C 54.382812 59.957031 54.375 59.9375 54.371094 59.917969 C 54.359375 59.882812 54.328125 59.859375 54.289062 59.859375 C 54.007812 59.871094 53.722656 59.878906 53.433594 59.886719 C 53.015625 59.894531 52.601562 59.894531 52.199219 59.894531 C 52.042969 59.886719 51.847656 59.882812 51.675781 59.796875 C 51.332031 59.628906 51.242188 59.246094 51.195312 59.0625 C 51.105469 58.726562 51.152344 58.488281 51.179688 58.195312 C 51.230469 57.621094 51.175781 57.195312 51.09375 56.597656 C 51.003906 55.949219 50.871094 55.441406 50.75 55.019531 C 50.632812 54.605469 50.523438 54.296875 50.476562 54.167969 C 49.816406 52.296875 47.988281 47.683594 47.355469 46.070312 C 47.003906 45.175781 46.828125 44.726562 46.773438 44.570312 C 46.355469 43.417969 45.933594 42.066406 45.273438 40.664062 C 45.164062 40.433594 44.972656 40.042969 44.585938 39.664062 C 44.152344 39.238281 43.691406 39.046875 43.5 38.972656 C 43.273438 38.886719 42.613281 38.652344 41.84375 38.832031 C 41.535156 38.90625 41.296875 39.027344 40.976562 39.191406 C 40.566406 39.398438 40.445312 39.515625 40.164062 39.679688 C 39.550781 40.039062 38.976562 40.140625 38.464844 40.230469 C 38.089844 40.300781 37.574219 40.359375 36.964844 40.328125 C 32.339844 40.195312 27.714844 40.066406 23.09375 39.933594 C 23.054688 39.933594 23.007812 39.933594 22.949219 39.929688 C 22.886719 39.925781 22.660156 39.878906 22.53125 39.683594 C 22.449219 39.5625 22.445312 39.441406 22.445312 39.320312 C 22.441406 39.121094 22.496094 38.964844 22.535156 38.878906 C 22.898438 38.003906 23.113281 37.25 23.242188 36.707031 C 23.332031 36.320312 23.859375 34.023438 23.371094 31.5625 C 23.277344 31.085938 23.140625 30.578125 22.773438 30.0625 C 22.332031 29.441406 21.789062 29.128906 21.597656 29.027344 C 21.230469 28.832031 20.921875 28.757812 20.671875 28.695312 C 20.523438 28.660156 20.371094 28.644531 20.21875 28.644531 L 18.371094 28.644531 C 17.242188 28.621094 16.109375 28.597656 14.976562 28.578125 C 13.28125 28.542969 11.585938 28.511719 9.890625 28.476562 C 9.308594 28.460938 8.730469 28.449219 8.152344 28.4375 C 7.738281 28.425781 7.324219 28.417969 6.910156 28.410156 C 6.820312 28.40625 6.65625 28.386719 6.488281 28.289062 C 6.410156 28.246094 6.257812 28.164062 6.175781 27.980469 C 6.121094 27.859375 6.105469 27.742188 6.101562 27.660156 C 6.101562 27.621094 6.0625 27.585938 6.019531 27.585938 L 4.847656 27.585938 C 4.804688 27.585938 4.769531 27.621094 4.769531 27.664062 C 4.753906 28.023438 4.644531 28.277344 4.546875 28.304688 C 4.539062 28.304688 4.53125 28.308594 4.527344 28.308594 C 4.46875 28.320312 4.414062 28.320312 4.355469 28.308594 C 4.335938 28.304688 4.308594 28.296875 4.269531 28.289062 C 4.207031 28.273438 4.160156 28.265625 4.148438 28.261719 C 4 28.222656 3.761719 28.21875 3.695312 28.21875 C 3.53125 28.214844 3.375 28.203125 3.210938 28.207031 C 3.027344 28.207031 2.761719 28.207031 2.410156 28.191406 C 2.320312 28.1875 2.230469 28.1875 2.140625 28.1875 C 2.070312 28.183594 1.976562 28.175781 1.878906 28.136719 C 1.695312 28.070312 1.589844 27.953125 1.527344 27.886719 C 1.371094 27.710938 1.3125 27.535156 1.25 27.339844 C 1.214844 27.230469 1.175781 27.078125 1.152344 26.890625 C 1.148438 26.847656 1.113281 26.820312 1.074219 26.820312 L 0.902344 26.820312 C 0.871094 26.820312 0.824219 26.820312 0.773438 26.792969 C 0.730469 26.769531 0.699219 26.734375 0.667969 26.683594 C 0.59375 26.554688 0.578125 26.429688 0.578125 26.429688 C 0.542969 26.136719 0.441406 25.855469 0.425781 25.566406 C 0.375 24.71875 0.332031 24.933594 0.292969 24.121094 L 0.292969 20.621094 C 0.292969 20.59375 0.28125 20.570312 0.257812 20.554688 C 0.117188 20.460938 0.0429688 20.332031 0.0078125 20.265625 C -0.078125 20.109375 -0.0976562 19.972656 -0.101562 19.914062 C -0.195312 18.859375 -0.207031 18.320312 -0.207031 18.320312 C -0.203125 17.726562 -0.214844 17.414062 -0.222656 17.15625 C -0.21875 17.15625 -0.253906 16.09375 -0.0898438 15.515625 Z M 25.574219 34.578125 C 25.628906 35.105469 25.675781 35.542969 25.898438 36.074219 C 26.136719 36.640625 26.4375 37 26.523438 37.097656 C 26.660156 37.253906 26.925781 37.558594 27.371094 37.816406 C 27.800781 38.066406 28.1875 38.152344 28.417969 38.203125 C 28.640625 38.25 28.832031 38.273438 28.976562 38.28125 C 33.320312 38.351562 35.945312 38.40625 36.640625 38.445312 C 36.734375 38.453125 37.089844 38.476562 37.570312 38.445312 C 37.898438 38.425781 38.230469 38.402344 38.648438 38.292969 C 38.816406 38.25 39.289062 38.113281 39.832031 37.789062 C 40.011719 37.683594 40.347656 37.480469 40.707031 37.121094 C 40.796875 37.027344 41.195312 36.621094 41.523438 35.957031 C 41.679688 35.640625 41.976562 35.015625 41.992188 34.164062 C 42 33.71875 41.925781 33.386719 41.882812 33.191406 C 41.867188 33.125 41.847656 33.03125 41.816406 32.917969 C 41.804688 32.871094 41.746094 32.84375 41.703125 32.867188 C 41.652344 32.890625 41.601562 32.917969 41.542969 32.945312 C 41.328125 33.046875 41.148438 33.117188 41.039062 33.15625 C 40.886719 33.214844 40.832031 33.226562 40.429688 33.34375 C 39.894531 33.5 39.890625 33.507812 39.660156 33.566406 C 39.496094 33.613281 39.304688 33.660156 39.089844 33.707031 C 39.058594 33.710938 39.035156 33.738281 39.027344 33.769531 C 39.007812 33.882812 38.980469 33.976562 38.957031 34.046875 C 38.875 34.292969 38.765625 34.476562 38.675781 34.628906 C 38.609375 34.738281 38.550781 34.816406 38.535156 34.847656 C 38.109375 35.449219 37.898438 35.753906 37.648438 36.039062 C 37.1875 36.558594 36.757812 36.882812 36.429688 37.128906 C 35.878906 37.542969 35.46875 37.757812 35.355469 37.816406 C 35.160156 37.914062 34.984375 37.992188 34.859375 38.042969 C 34.800781 38.070312 34.710938 38.105469 34.589844 38.113281 C 34.519531 38.121094 34.464844 38.125 34.402344 38.097656 C 34.253906 38.039062 34.207031 37.871094 34.203125 37.847656 C 34.195312 37.828125 34.179688 37.761719 34.199219 37.671875 C 34.210938 37.597656 34.246094 37.546875 34.316406 37.449219 C 34.347656 37.40625 34.394531 37.347656 34.449219 37.28125 C 34.464844 37.265625 34.472656 37.246094 34.472656 37.226562 C 34.472656 37.167969 34.410156 37.128906 34.355469 37.152344 C 34.132812 37.257812 33.945312 37.292969 33.820312 37.304688 C 33.675781 37.316406 33.621094 37.300781 33.597656 37.292969 C 33.367188 37.214844 33.230469 36.921875 33.234375 36.667969 C 33.238281 36.535156 33.28125 36.425781 33.324219 36.34375 C 34.222656 35.320312 35.125 34.292969 36.023438 33.265625 C 36.035156 33.253906 36.039062 33.238281 36.042969 33.222656 C 36.101562 32.839844 36.136719 32.484375 36.152344 32.164062 C 36.171875 31.710938 36.195312 31.148438 36.074219 30.445312 C 36.011719 30.085938 35.921875 29.769531 35.832031 29.503906 C 35.824219 29.476562 35.796875 29.457031 35.769531 29.453125 C 34.90625 29.328125 34.207031 29.238281 33.714844 29.175781 C 33 29.085938 32.890625 29.085938 32.257812 28.996094 C 31.699219 28.914062 31.226562 28.855469 30.855469 28.8125 C 30.800781 28.804688 30.324219 28.75 29.710938 28.710938 C 29.472656 28.695312 29.386719 28.691406 29.28125 28.695312 C 29.1875 28.699219 28.847656 28.714844 28.347656 28.871094 C 28.101562 28.949219 27.714844 29.070312 27.296875 29.335938 C 26.996094 29.527344 26.300781 30.035156 25.910156 30.941406 C 25.65625 31.527344 25.613281 32.097656 25.589844 32.441406 C 25.578125 32.628906 25.574219 32.789062 25.574219 32.898438 C 25.507812 33.59375 25.535156 34.167969 25.574219 34.578125 Z M 25.574219 34.578125 " fill-opacity="1" fill-rule="nonzero"/></g></svg>