<svg xmlns="http://www.w3.org/2000/svg" xmlns:xlink="http://www.w3.org/1999/xlink" width="100" zoomAndPan="magnify" viewBox="0 0 75 74.999997" height="100" preserveAspectRatio="xMidYMid meet" version="1.0"><defs><clipPath id="id1"><path d="M 25 6.46875 L 53 6.46875 L 53 68.71875 L 25 68.71875 Z M 25 6.46875 " clip-rule="nonzero"/></clipPath></defs><path fill="#19ff81" d="M 18.925781 55.691406 C 18.34375 55.691406 17.765625 55.472656 17.324219 55.027344 L 0.09375 37.746094 L 17.324219 20.464844 C 18.207031 19.578125 19.640625 19.578125 20.527344 20.464844 C 21.410156 21.351562 21.410156 22.792969 20.527344 23.679688 L 6.503906 37.746094 L 20.527344 51.8125 C 21.410156 52.699219 21.410156 54.140625 20.527344 55.027344 C 20.085938 55.472656 19.503906 55.691406 18.925781 55.691406 " fill-opacity="1" fill-rule="nonzero"/><path fill="#19ff81" d="M 56.085938 55.691406 C 55.503906 55.691406 54.925781 55.472656 54.484375 55.027344 C 53.597656 54.140625 53.597656 52.699219 54.484375 51.8125 L 68.507812 37.746094 L 54.484375 23.679688 C 53.597656 22.792969 53.597656 21.351562 54.484375 20.464844 C 55.367188 19.578125 56.800781 19.578125 57.6875 20.464844 L 74.914062 37.746094 L 57.6875 55.027344 C 57.246094 55.472656 56.664062 55.691406 56.085938 55.691406 " fill-opacity="1" fill-rule="nonzero"/><g clip-path="url(#id1)"><path fill="#19ff81" d="M 27.339844 68.722656 C 27.058594 68.722656 26.773438 68.671875 26.496094 68.558594 C 25.335938 68.089844 24.773438 66.765625 25.238281 65.601562 L 48.246094 8.195312 C 48.710938 7.03125 50.03125 6.464844 51.191406 6.933594 C 52.351562 7.402344 52.914062 8.726562 52.449219 9.890625 L 29.441406 67.296875 C 29.085938 68.183594 28.238281 68.722656 27.339844 68.722656 " fill-opacity="1" fill-rule="nonzero"/></g></svg>