<svg xmlns="http://www.w3.org/2000/svg" xmlns:xlink="http://www.w3.org/1999/xlink" width="100" zoomAndPan="magnify" viewBox="0 0 75 74.999997" height="100" preserveAspectRatio="xMidYMid meet" version="1.0"><defs><clipPath id="id1"><path d="M 0.65625 0 L 74.15625 0 L 74.15625 53 L 0.65625 53 Z M 0.65625 0 " clip-rule="nonzero"/></clipPath></defs><path fill="#19ff81" d="M 47.421875 72.378906 L 47.339844 72.34375 L 47.265625 72.394531 C 46.582031 72.878906 45.8125 73.3125 44.765625 73.792969 L 44.460938 73.933594 L 44.761719 74.085938 C 45.945312 74.679688 47.023438 74.976562 47.9375 74.976562 C 49.03125 74.976562 49.898438 74.554688 50.453125 73.714844 L 50.566406 73.542969 L 50.367188 73.472656 C 49.304688 73.109375 48.339844 72.75 47.421875 72.378906 " fill-opacity="1" fill-rule="nonzero"/><path fill="#19ff81" d="M 54.78125 68.546875 C 54.570312 68.402344 54.351562 68.273438 54.128906 68.144531 C 53.875 67.996094 53.609375 67.839844 53.363281 67.660156 C 53.226562 67.5625 53.070312 67.433594 52.898438 67.292969 C 52.492188 66.957031 52.027344 66.578125 51.5625 66.371094 L 51.492188 66.339844 L 51.425781 66.375 C 50.9375 66.625 50.492188 66.988281 50.023438 67.511719 L 49.882812 67.671875 L 50.074219 67.765625 C 51.335938 68.378906 52.816406 69.125 54.226562 70.03125 L 54.324219 70.09375 L 54.410156 70.023438 C 54.457031 69.984375 54.507812 69.949219 54.574219 69.886719 C 54.71875 69.699219 54.90625 69.457031 55.082031 69.195312 L 55.105469 69.15625 L 55.109375 69.109375 C 55.117188 68.890625 55.007812 68.703125 54.78125 68.546875 " fill-opacity="1" fill-rule="nonzero"/><path fill="#19ff81" d="M 49.632812 68.1875 L 49.515625 68.128906 L 48.832031 69.050781 L 49.003906 69.140625 C 49.160156 69.242188 49.347656 69.375 49.554688 69.527344 C 50.003906 69.851562 50.558594 70.253906 51.128906 70.570312 L 51.167969 70.582031 C 51.480469 70.660156 51.777344 70.710938 52.046875 70.742188 C 52.304688 70.769531 52.441406 70.914062 52.511719 71.035156 L 52.554688 71.101562 L 52.632812 71.109375 C 52.699219 71.117188 52.761719 71.121094 52.824219 71.121094 C 53.230469 71.121094 53.574219 70.984375 53.851562 70.710938 L 54.003906 70.566406 L 53.828125 70.453125 C 52.378906 69.542969 50.894531 68.796875 49.632812 68.1875 " fill-opacity="1" fill-rule="nonzero"/><path fill="#19ff81" d="M 52.652344 66.070312 C 52.640625 66.070312 52.628906 66.070312 52.617188 66.070312 L 52.097656 66.074219 L 52.53125 66.367188 C 52.75 66.511719 52.96875 66.671875 53.179688 66.824219 C 53.476562 67.042969 53.757812 67.246094 54.03125 67.410156 C 54.125 67.46875 54.222656 67.523438 54.324219 67.582031 C 54.710938 67.800781 55.113281 68.03125 55.398438 68.34375 L 55.542969 68.496094 L 55.65625 68.320312 C 55.863281 67.992188 56.070312 67.664062 56.28125 67.347656 L 56.386719 67.195312 L 56.222656 67.113281 C 55.730469 66.867188 54.035156 66.070312 52.652344 66.070312 " fill-opacity="1" fill-rule="nonzero"/><path fill="#19ff81" d="M 41.9375 70.433594 C 42.742188 70.433594 43.550781 70.289062 44.347656 70 L 44.792969 69.839844 L 44.34375 69.695312 C 40.476562 68.457031 37.445312 64.292969 34.988281 60.386719 C 31.9375 55.546875 30.449219 51.199219 30.4375 47.101562 L 30.4375 46.984375 L 30.328125 46.945312 C 29.519531 46.679688 28.6875 46.539062 27.875 46.402344 C 27.632812 46.359375 27.382812 46.320312 27.140625 46.273438 L 26.890625 46.226562 L 26.953125 46.476562 C 27.320312 47.867188 27.847656 49.246094 28.210938 50.160156 C 28.46875 50.804688 28.671875 51.441406 28.863281 52.058594 C 29.347656 53.597656 29.804688 55.046875 31.058594 56.359375 C 31.988281 57.328125 32.527344 58.726562 33.042969 60.085938 C 33.164062 60.386719 33.277344 60.6875 33.390625 60.976562 C 34.085938 62.675781 34.96875 64.652344 36.25 66.40625 C 37.492188 68.109375 39.421875 70.378906 41.824219 70.433594 C 41.859375 70.433594 41.898438 70.433594 41.9375 70.433594 " fill-opacity="1" fill-rule="nonzero"/><path fill="#19ff81" d="M 55.277344 57.304688 L 55.320312 57.378906 L 55.40625 57.382812 C 55.421875 57.382812 55.433594 57.386719 55.449219 57.386719 C 56.789062 57.386719 57.84375 54.714844 58.148438 53.859375 C 58.535156 52.78125 59.1875 50.984375 58.578125 49.824219 L 58.4375 49.617188 L 58.285156 49.839844 C 58.273438 49.859375 58.257812 49.882812 58.25 49.894531 C 58.234375 49.925781 58.214844 49.957031 58.199219 49.992188 L 58.179688 50.066406 C 58.179688 50.136719 58.179688 50.199219 58.15625 50.261719 C 57.453125 52.417969 56.488281 54.613281 55.199219 56.976562 L 55.179688 57.082031 L 55.203125 57.148438 C 55.214844 57.183594 55.222656 57.199219 55.226562 57.214844 C 55.242188 57.242188 55.257812 57.269531 55.277344 57.304688 " fill-opacity="1" fill-rule="nonzero"/><path fill="#19ff81" d="M 30.25 46.320312 L 30.449219 46.378906 L 30.457031 46.171875 C 30.472656 45.886719 30.496094 45.605469 30.527344 45.320312 L 30.539062 45.207031 L 30.4375 45.15625 C 30.078125 44.984375 29.722656 44.785156 29.378906 44.589844 C 29.195312 44.488281 29.011719 44.382812 28.824219 44.28125 C 28.765625 44.25 28.695312 44.207031 28.613281 44.160156 C 28.066406 43.851562 27.148438 43.324219 26.582031 43.585938 L 26.484375 43.628906 L 26.488281 43.742188 C 26.515625 44.28125 26.589844 44.859375 26.722656 45.507812 L 26.746094 45.617188 L 26.847656 45.636719 C 27.261719 45.722656 27.675781 45.792969 28.089844 45.859375 C 28.808594 45.984375 29.546875 46.105469 30.25 46.320312 " fill-opacity="1" fill-rule="nonzero"/><path fill="#19ff81" d="M 50.640625 71.628906 C 49.324219 71.246094 48.296875 70.546875 47.667969 69.609375 L 47.574219 69.46875 L 47.4375 69.570312 C 47.222656 69.726562 47 69.886719 46.773438 70.03125 C 45.105469 71.09375 43.351562 71.59375 41.707031 71.488281 L 41.199219 71.453125 L 41.597656 71.777344 C 42.410156 72.4375 43.113281 72.800781 43.8125 72.925781 L 43.859375 72.933594 L 43.90625 72.914062 C 44.824219 72.507812 45.859375 72.042969 46.738281 71.363281 C 46.828125 71.292969 46.921875 71.253906 47.023438 71.238281 L 47.070312 71.222656 C 47.1875 71.160156 47.378906 71.109375 47.605469 71.203125 C 48.402344 71.542969 49.277344 71.875 50.285156 72.210938 L 50.34375 72.234375 L 50.402344 72.207031 C 50.523438 72.152344 50.652344 72.074219 50.792969 71.960938 L 50.984375 71.8125 L 50.773438 71.695312 C 50.734375 71.671875 50.699219 71.652344 50.640625 71.628906 " fill-opacity="1" fill-rule="nonzero"/><g clip-path="url(#id1)"><path fill="#19ff81" d="M 64.269531 12.699219 C 63.304688 11.316406 62.707031 10.449219 62.800781 10.375 C 62.882812 10.304688 63.644531 11.03125 64.734375 12.339844 C 65.828125 13.640625 67.246094 15.542969 68.457031 17.871094 C 69.058594 19.035156 69.519531 20.203125 69.863281 21.296875 C 70.015625 21.847656 70.171875 22.367188 70.25 22.875 C 70.292969 23.121094 70.347656 23.359375 70.378906 23.59375 C 70.40625 23.828125 70.425781 24.058594 70.449219 24.269531 C 70.589844 26.003906 70.335938 27.058594 70.246094 27.042969 C 70.105469 27.03125 70.144531 25.984375 69.863281 24.347656 C 69.820312 24.140625 69.785156 23.933594 69.742188 23.707031 C 69.699219 23.484375 69.628906 23.261719 69.574219 23.023438 C 69.472656 22.550781 69.292969 22.058594 69.128906 21.535156 C 68.761719 20.5 68.296875 19.386719 67.714844 18.257812 C 66.535156 15.996094 65.226562 14.078125 64.269531 12.699219 Z M 56.769531 5.671875 C 56.53125 5.546875 56.289062 5.410156 56.03125 5.273438 C 55.769531 5.140625 55.488281 5.011719 55.210938 4.871094 C 54.652344 4.582031 54.023438 4.328125 53.375 4.046875 C 52.0625 3.515625 50.59375 3.007812 49.019531 2.597656 C 47.433594 2.199219 45.894531 1.945312 44.492188 1.785156 C 43.792969 1.722656 43.121094 1.648438 42.488281 1.636719 C 41.859375 1.597656 41.277344 1.597656 40.738281 1.601562 C 38.605469 1.617188 37.253906 1.800781 37.242188 1.664062 C 37.242188 1.566406 38.523438 1.183594 40.714844 1.003906 C 41.261719 0.964844 41.859375 0.929688 42.503906 0.941406 C 43.152344 0.921875 43.839844 0.96875 44.5625 1.015625 C 46.011719 1.140625 47.59375 1.375 49.21875 1.785156 C 50.84375 2.203125 52.351562 2.75 53.679688 3.332031 C 54.335938 3.644531 54.96875 3.929688 55.523438 4.253906 C 55.804688 4.40625 56.082031 4.550781 56.34375 4.707031 C 56.597656 4.867188 56.839844 5.015625 57.074219 5.164062 C 58.914062 6.351562 59.882812 7.316406 59.820312 7.386719 C 59.738281 7.5 58.648438 6.710938 56.769531 5.671875 Z M 55.210938 47.101562 C 54.585938 46.945312 53.679688 46.65625 52.621094 46.234375 C 51.542969 45.792969 50.296875 45.203125 48.972656 44.4375 C 47.652344 43.683594 46.238281 42.785156 44.769531 41.847656 C 43.300781 40.90625 41.898438 40.023438 40.59375 39.28125 C 39.300781 38.527344 38.078125 37.953125 37.042969 37.507812 C 34.96875 36.648438 33.546875 36.386719 33.582031 36.246094 C 33.589844 36.164062 35.03125 36.203125 37.25 36.957031 C 38.339844 37.335938 39.621094 37.871094 40.96875 38.601562 C 42.316406 39.324219 43.746094 40.195312 45.21875 41.140625 C 46.695312 42.082031 48.078125 42.988281 49.363281 43.769531 C 50.644531 44.558594 51.839844 45.195312 52.847656 45.6875 C 53.890625 46.183594 54.722656 46.542969 55.3125 46.785156 C 55.902344 46.996094 56.234375 47.136719 56.222656 47.195312 C 56.214844 47.25 55.855469 47.21875 55.210938 47.101562 Z M 23.835938 7.105469 C 22.925781 7.644531 22.085938 8.195312 21.34375 8.722656 C 20.609375 9.269531 19.957031 9.765625 19.453125 10.234375 C 18.429688 11.140625 17.859375 11.828125 17.757812 11.742188 C 17.679688 11.683594 18.058594 10.890625 19.035156 9.8125 C 19.507812 9.273438 20.144531 8.699219 20.875 8.105469 C 21.621094 7.523438 22.472656 6.933594 23.40625 6.382812 C 25.285156 5.28125 27.089844 4.515625 28.429688 4.058594 C 29.765625 3.597656 30.628906 3.429688 30.664062 3.53125 C 30.746094 3.773438 27.480469 4.960938 23.835938 7.105469 Z M 70.988281 36.40625 C 71.136719 38.292969 70.964844 39.863281 70.742188 39.855469 C 70.503906 39.84375 70.296875 38.347656 70.148438 36.460938 C 70.011719 34.527344 70.273438 33.015625 70.492188 33.015625 C 70.734375 33.015625 70.847656 34.574219 70.988281 36.40625 Z M 73.574219 50.390625 C 72.394531 50.796875 71.339844 50.9375 70.457031 51.007812 C 69.371094 51.066406 68.527344 51.011719 67.886719 50.90625 C 67.566406 50.847656 67.300781 50.792969 67.082031 50.738281 C 66.863281 50.664062 66.691406 50.597656 66.5625 50.542969 C 66.300781 50.429688 66.195312 50.355469 66.214844 50.304688 C 66.226562 50.253906 66.355469 50.242188 66.636719 50.261719 C 66.769531 50.277344 66.945312 50.296875 67.15625 50.328125 C 67.375 50.34375 67.640625 50.359375 67.945312 50.378906 C 68.558594 50.414062 69.371094 50.414062 70.398438 50.320312 C 71.210938 50.230469 72.1875 50.074219 73.246094 49.714844 C 71.5 45.839844 71.808594 40.996094 72.171875 36.894531 C 72.722656 30.667969 73.660156 24.003906 70.613281 18.230469 C 65.339844 8.25 54.367188 0.00390625 42.867188 0.0351562 C 32.273438 0.0625 20.867188 4.097656 14.871094 13.355469 C 13.3125 15.761719 12.046875 18.390625 10.816406 20.976562 C 9.570312 23.601562 9.117188 26.191406 8.199219 28.875 C 7.664062 30.445312 6.757812 31.457031 5.644531 32.1875 C 9.796875 32.167969 13.339844 32.238281 16.300781 32.53125 C 17.164062 32.628906 17.984375 32.71875 18.75 32.808594 C 19.519531 32.929688 20.242188 33.050781 20.921875 33.152344 C 22.265625 33.417969 23.441406 33.699219 24.4375 33.910156 C 25.4375 34.128906 26.28125 34.332031 26.988281 34.480469 C 27.703125 34.609375 28.273438 34.714844 28.71875 34.796875 C 29.597656 34.972656 29.976562 35.074219 29.976562 35.128906 C 29.972656 35.175781 29.582031 35.171875 28.679688 35.082031 C 28.226562 35.035156 27.644531 34.972656 26.921875 34.894531 C 26.199219 34.785156 25.34375 34.617188 24.324219 34.429688 C 23.296875 34.242188 22.152344 34.003906 20.816406 33.765625 C 20.140625 33.671875 19.425781 33.570312 18.667969 33.460938 C 17.90625 33.382812 17.101562 33.300781 16.238281 33.21875 C 12.972656 32.929688 8.996094 32.90625 4.214844 32.941406 C 3.511719 33.25 2.78125 33.503906 2.050781 33.746094 C 1.773438 33.832031 0.777344 33.945312 1.019531 34.320312 C 1.273438 34.714844 2.507812 34.660156 2.921875 34.6875 C 3.769531 34.734375 4.617188 34.710938 5.460938 34.664062 C 6.800781 34.589844 8.121094 34.398438 9.457031 34.3125 C 14.300781 34.003906 19.375 34.550781 24.132812 35.496094 C 29.820312 36.632812 35.195312 38.546875 40.378906 41.144531 C 45.925781 43.921875 51.339844 46.980469 57.179688 49.121094 C 57.320312 48.90625 57.484375 48.703125 57.683594 48.53125 C 57.742188 48.484375 57.800781 48.445312 57.871094 48.410156 C 57.988281 48.316406 58.140625 48.25 58.332031 48.25 C 61.027344 48.265625 63.347656 49.457031 65.4375 51.082031 C 65.457031 51.101562 65.476562 51.121094 65.488281 51.136719 C 65.816406 51.320312 66.011719 51.707031 65.738281 52.109375 C 65.71875 52.140625 65.703125 52.171875 65.6875 52.195312 C 68.152344 53.179688 71.757812 52.613281 74.128906 51.324219 C 73.925781 51.023438 73.742188 50.714844 73.574219 50.390625 " fill-opacity="1" fill-rule="nonzero"/></g><path fill="#19ff81" d="M 31.167969 44.050781 C 31.238281 44.078125 31.300781 44.117188 31.351562 44.152344 C 31.667969 44.28125 31.921875 44.582031 31.878906 44.996094 C 37.398438 45.835938 42.5 47.007812 48.019531 46.6875 C 45.214844 45.289062 42.441406 43.820312 39.628906 42.433594 C 33.269531 39.296875 26.589844 37.089844 19.527344 36.277344 C 16.773438 35.957031 14.074219 35.890625 11.371094 35.90625 C 13.03125 36.769531 14.652344 37.761719 16.320312 38.535156 C 19.355469 39.949219 22.492188 41.316406 25.648438 42.433594 C 25.710938 42.453125 25.765625 42.484375 25.8125 42.515625 C 27.554688 41.472656 29.59375 43.410156 31.167969 44.050781 " fill-opacity="1" fill-rule="nonzero"/><path fill="#19ff81" d="M 55.496094 58.082031 L 55.371094 58.046875 L 55.292969 58.199219 C 54.792969 59.0625 54.304688 59.984375 53.832031 60.875 C 53.171875 62.109375 52.492188 63.386719 51.75 64.59375 L 51.648438 64.757812 L 51.824219 64.828125 C 51.878906 64.851562 51.933594 64.882812 51.988281 64.914062 L 52.042969 64.96875 L 52.121094 64.960938 C 53.546875 64.761719 55.246094 65.382812 56.128906 65.773438 L 56.242188 65.824219 L 56.320312 65.730469 C 57.625 64.136719 59.132812 62.21875 60.4375 60.050781 L 60.535156 59.890625 L 60.359375 59.820312 C 58.75 59.160156 57.167969 58.53125 55.496094 58.082031 " fill-opacity="1" fill-rule="nonzero"/><path fill="#19ff81" d="M 59.386719 49.667969 L 59.128906 49.628906 L 59.214844 49.878906 C 59.675781 51.238281 59.09375 53.113281 58.523438 54.445312 C 58.109375 55.433594 57.449219 56.824219 56.539062 57.519531 L 56.289062 57.710938 L 56.589844 57.800781 C 57.953125 58.230469 59.25 58.75 60.6875 59.339844 L 60.820312 59.394531 L 60.890625 59.273438 C 61.128906 58.855469 61.339844 58.460938 61.539062 58.070312 C 61.964844 57.222656 62.324219 56.316406 62.671875 55.4375 C 63.125 54.277344 63.601562 53.078125 64.238281 52.007812 L 64.3125 51.886719 L 64.195312 51.796875 C 62.5625 50.589844 60.992188 49.890625 59.386719 49.667969 " fill-opacity="1" fill-rule="nonzero"/></svg>