<svg xmlns="http://www.w3.org/2000/svg" xmlns:xlink="http://www.w3.org/1999/xlink" width="100" zoomAndPan="magnify" viewBox="0 0 75 74.999997" height="100" preserveAspectRatio="xMidYMid meet" version="1.0"><path fill="#19ff81" d="M 37.5 75 C 16.820312 75 0 58.179688 0 37.5 C 0 16.820312 16.820312 0 37.5 0 C 58.179688 0 75 16.820312 75 37.5 C 75 58.179688 58.179688 75 37.5 75 Z M 37.5 3.125 C 18.546875 3.125 3.125 18.546875 3.125 37.5 C 3.125 56.453125 18.546875 71.875 37.5 71.875 C 56.453125 71.875 71.875 56.453125 71.875 37.5 C 71.875 18.546875 56.453125 3.125 37.5 3.125 Z M 37.5 3.125 " fill-opacity="1" fill-rule="nonzero"/><path fill="#19ff81" d="M 25 31.25 C 21.554688 31.25 18.75 28.445312 18.75 25 C 18.75 21.554688 21.554688 18.75 25 18.75 C 28.445312 18.75 31.25 21.554688 31.25 25 C 31.25 28.445312 28.445312 31.25 25 31.25 Z M 25 21.875 C 23.273438 21.875 21.875 23.277344 21.875 25 C 21.875 26.722656 23.273438 28.125 25 28.125 C 26.726562 28.125 28.125 26.722656 28.125 25 C 28.125 23.277344 26.726562 21.875 25 21.875 Z M 25 21.875 " fill-opacity="1" fill-rule="nonzero"/><path fill="#19ff81" d="M 37.5 67.1875 C 21.132812 67.1875 7.8125 53.867188 7.8125 37.5 C 7.8125 21.132812 21.132812 7.8125 37.5 7.8125 C 38.363281 7.8125 39.0625 8.511719 39.0625 9.375 C 39.0625 10.238281 38.363281 10.9375 37.5 10.9375 C 22.851562 10.9375 10.9375 22.851562 10.9375 37.5 C 10.9375 52.148438 22.851562 64.0625 37.5 64.0625 C 51.621094 64.0625 63.207031 52.984375 64.015625 39.0625 L 48.4375 39.0625 C 47.574219 39.0625 46.875 38.363281 46.875 37.5 C 46.875 36.636719 47.574219 35.9375 48.4375 35.9375 L 65.625 35.9375 C 66.488281 35.9375 67.1875 36.636719 67.1875 37.5 C 67.1875 53.867188 53.867188 67.1875 37.5 67.1875 Z M 37.5 67.1875 " fill-opacity="1" fill-rule="nonzero"/><path fill="#19ff81" d="M 46.875 53.125 L 37.503906 53.125 C 36.640625 53.125 35.941406 52.425781 35.941406 51.5625 L 35.941406 21.875 C 35.941406 21.011719 36.640625 20.3125 37.503906 20.3125 C 38.367188 20.3125 39.066406 21.011719 39.066406 21.875 L 39.066406 50 L 46.875 50 C 47.738281 50 48.4375 50.699219 48.4375 51.5625 C 48.4375 52.425781 47.738281 53.125 46.875 53.125 Z M 46.875 53.125 " fill-opacity="1" fill-rule="nonzero"/></svg>