<svg xmlns="http://www.w3.org/2000/svg" xmlns:xlink="http://www.w3.org/1999/xlink" width="100" zoomAndPan="magnify" viewBox="0 0 75 74.999997" height="100" preserveAspectRatio="xMidYMid meet" version="1.0"><defs><clipPath id="id1"><path d="M 0 4.722656 L 75 4.722656 L 75 69.972656 L 0 69.972656 Z M 0 4.722656 " clip-rule="nonzero"/></clipPath></defs><g clip-path="url(#id1)"><path fill="#19ff81" d="M 27.132812 5.261719 C 27.410156 6.769531 28.359375 8.0625 29.714844 8.804688 L 30.636719 9.296875 L 37.519531 9.371094 C 44.1875 9.445312 44.40625 9.457031 44.8125 9.75 C 46.023438 10.632812 46.023438 12.753906 44.8125 13.640625 C 44.449219 13.902344 44.113281 13.960938 42.261719 14.03125 C 40.46875 14.089844 40 14.164062 39.402344 14.421875 C 38.234375 14.945312 37.492188 15.65625 36.953125 16.746094 C 36.515625 17.632812 36.46875 17.851562 36.414062 19.34375 L 36.367188 20.988281 L 30.796875 20.988281 C 26.519531 20.972656 25.179688 20.929688 24.988281 20.796875 C 24.785156 20.636719 24.742188 20.246094 24.699219 18.125 L 24.65625 15.644531 L 24.21875 15.089844 C 23.328125 14.003906 23.371094 14.015625 17.726562 14.015625 C 12.082031 14.015625 12.125 14.003906 11.234375 15.089844 L 10.796875 15.644531 L 10.753906 18.140625 L 10.707031 20.636719 L 10.023438 21.058594 C 9.175781 21.582031 6.84375 23.875 6.230469 24.777344 C 4.933594 26.675781 4.101562 28.914062 3.851562 31.136719 C 3.765625 31.90625 3.34375 35.171875 2.90625 38.410156 C 1.257812 50.707031 0.453125 57.546875 0.292969 60.625 C 0.015625 65.632812 2.234375 68.796875 6.523438 69.566406 C 8.230469 69.886719 9.367188 69.753906 10.679688 69.117188 C 13.1875 67.882812 16.105469 64.222656 18.847656 58.882812 C 20.058594 56.515625 21.125 54.058594 20.976562 53.929688 C 20.832031 53.800781 19.316406 53.21875 19.113281 53.21875 C 19.023438 53.21875 18.671875 53.886719 18.324219 54.714844 C 17.289062 57.125 15.304688 60.871094 14.109375 62.65625 C 12.695312 64.777344 10.941406 66.5625 9.777344 67.097656 C 9.003906 67.460938 8.828125 67.476562 7.601562 67.40625 C 5.121094 67.257812 3.664062 66.371094 2.992188 64.601562 C 2.539062 63.398438 2.46875 61.320312 2.757812 58.226562 C 3.269531 53.074219 5.046875 39.0625 5.222656 38.902344 C 5.253906 38.859375 5.53125 39.265625 5.851562 39.789062 C 6.871094 41.558594 9.03125 43.605469 10.941406 44.679688 C 13.246094 45.972656 14.835938 46.378906 17.886719 46.496094 L 20.175781 46.582031 L 20.351562 47.179688 C 21.09375 49.703125 23.488281 51.796875 26.097656 52.230469 C 29.308594 52.753906 32.808594 50.445312 33.785156 47.164062 L 33.960938 46.539062 L 41.164062 46.539062 L 41.339844 47.148438 C 42.101562 49.703125 44.476562 51.796875 47.101562 52.230469 C 50.3125 52.753906 53.8125 50.445312 54.789062 47.148438 L 54.964844 46.539062 L 56.585938 46.539062 C 60.171875 46.539062 62.988281 45.667969 65.570312 43.78125 C 67.085938 42.664062 68.878906 40.671875 69.566406 39.308594 C 69.710938 39.03125 69.859375 38.84375 69.886719 38.886719 C 70.046875 39.03125 71.753906 52.359375 72.28125 57.5 C 72.820312 62.65625 72.554688 64.71875 71.183594 66.066406 C 70.367188 66.894531 69.230469 67.300781 67.523438 67.402344 C 66.296875 67.476562 66.125 67.460938 65.351562 67.097656 C 62.945312 66.011719 59.53125 61.042969 56.804688 54.699219 C 56.453125 53.886719 56.105469 53.21875 56.015625 53.21875 C 55.796875 53.21875 54.28125 53.800781 54.148438 53.929688 C 53.988281 54.089844 55.695312 57.894531 56.90625 60.113281 C 60.277344 66.242188 63.472656 69.464844 66.445312 69.710938 C 69.582031 69.972656 72.691406 68.347656 73.972656 65.777344 C 74.789062 64.136719 74.980469 62.671875 74.777344 59.78125 C 74.5 55.976562 73.710938 49.445312 72.136719 37.902344 C 71.757812 35.027344 71.390625 32.152344 71.332031 31.511719 C 71.273438 30.886719 71.101562 29.871094 70.953125 29.261719 C 70.589844 27.867188 69.453125 25.53125 68.578125 24.367188 C 67.773438 23.324219 65.996094 21.625 65.074219 21.042969 L 64.417969 20.636719 L 64.375 18.140625 L 64.332031 15.640625 L 63.894531 15.089844 C 63.003906 14.015625 63.046875 14.015625 57.445312 14.015625 C 54.28125 14.015625 52.3125 14.074219 52.050781 14.175781 C 51.496094 14.378906 50.839844 15.003906 50.605469 15.570312 C 50.460938 15.90625 50.402344 16.703125 50.402344 18.316406 C 50.402344 20.316406 50.375 20.609375 50.15625 20.78125 C 49.949219 20.941406 48.726562 20.972656 44.320312 20.984375 L 38.734375 20.984375 L 38.734375 19.492188 C 38.734375 17.835938 38.9375 17.238281 39.652344 16.71875 C 40.015625 16.457031 40.351562 16.398438 42.203125 16.339844 C 44.117188 16.265625 44.4375 16.207031 45.164062 15.875 C 48.796875 14.207031 48.945312 9.515625 45.414062 7.613281 L 44.496094 7.121094 L 37.636719 7.046875 C 32.546875 6.988281 30.695312 6.933594 30.460938 6.800781 C 29.964844 6.511719 29.542969 5.886719 29.453125 5.277344 L 29.351562 4.722656 L 27.035156 4.722656 Z M 22.394531 17.921875 L 22.394531 19.503906 L 21.488281 19.230469 C 19.273438 18.53125 16.179688 18.53125 13.960938 19.230469 L 13.058594 19.503906 L 13.058594 16.339844 L 22.394531 16.339844 Z M 62.070312 17.921875 L 62.070312 19.503906 L 61.167969 19.230469 C 58.949219 18.53125 55.855469 18.53125 53.640625 19.230469 L 52.734375 19.503906 L 52.734375 16.339844 L 62.070312 16.339844 Z M 20.863281 21.347656 C 24.027344 22.207031 26.8125 24.5 28.226562 27.433594 C 29.105469 29.261719 29.308594 30.191406 29.308594 32.527344 C 29.320312 34.78125 29.132812 35.722656 28.34375 37.421875 L 27.894531 38.410156 L 27.28125 38.410156 C 24.1875 38.410156 21.226562 40.632812 20.335938 43.621094 L 20.148438 44.246094 L 17.8125 44.171875 C 15.15625 44.085938 14.328125 43.910156 12.53125 43.054688 C 9.558594 41.632812 7.296875 38.886719 6.40625 35.652344 C 6.042969 34.328125 6.042969 30.875 6.40625 29.554688 C 7.589844 25.226562 11.191406 21.914062 15.566406 21.132812 C 16.660156 20.941406 19.8125 21.074219 20.863281 21.347656 Z M 60.539062 21.347656 C 63.71875 22.207031 66.488281 24.5 67.90625 27.445312 C 68.792969 29.289062 68.984375 30.191406 68.984375 32.601562 C 68.984375 35.027344 68.796875 35.910156 67.890625 37.785156 C 66.796875 40.0625 64.902344 41.953125 62.609375 43.039062 C 60.800781 43.910156 59.96875 44.085938 57.316406 44.171875 L 54.980469 44.246094 L 54.792969 43.621094 C 54.0625 41.136719 51.742188 39.035156 49.246094 38.554688 C 48.808594 38.480469 48.183594 38.410156 47.847656 38.410156 L 47.234375 38.410156 L 46.78125 37.421875 C 45.9375 35.59375 45.804688 34.910156 45.804688 32.601562 C 45.820312 30.234375 46.011719 29.332031 46.839844 27.519531 C 48.417969 24.148438 51.742188 21.695312 55.578125 21.074219 C 56.441406 20.941406 59.664062 21.117188 60.539062 21.347656 Z M 46.285156 24.3125 C 43.28125 28.230469 42.609375 33.371094 44.492188 37.855469 C 45.074219 39.222656 45.074219 39.179688 44.507812 39.484375 C 43.28125 40.136719 41.808594 42.054688 41.355469 43.59375 L 41.167969 44.214844 L 33.960938 44.214844 L 33.769531 43.59375 C 33.320312 42.054688 31.84375 40.136719 30.621094 39.484375 C 30.050781 39.179688 30.050781 39.222656 30.636719 37.855469 C 31.378906 36.085938 31.613281 34.867188 31.640625 32.746094 C 31.640625 31.308594 31.582031 30.496094 31.394531 29.699219 C 30.898438 27.664062 29.964844 25.734375 28.722656 24.136719 L 28.066406 23.308594 L 47.042969 23.308594 Z M 29.117188 41.125 C 29.980469 41.515625 30.941406 42.460938 31.351562 43.332031 C 31.816406 44.332031 31.789062 46.480469 31.308594 47.46875 C 30.855469 48.382812 30.082031 49.152344 29.164062 49.601562 C 28.5625 49.894531 28.226562 49.949219 27.0625 49.949219 C 25.414062 49.949219 24.667969 49.675781 23.707031 48.71875 C 22.917969 47.933594 22.511719 47.003906 22.421875 45.796875 C 22.261719 43.488281 23.355469 41.703125 25.382812 40.976562 C 26.359375 40.628906 28.167969 40.703125 29.117188 41.125 Z M 50.183594 41.167969 C 51.085938 41.605469 51.859375 42.375 52.3125 43.289062 C 52.601562 43.882812 52.660156 44.21875 52.660156 45.378906 C 52.660156 46.960938 52.355469 47.789062 51.421875 48.71875 C 50.488281 49.648438 49.65625 49.953125 48.066406 49.953125 C 46.898438 49.953125 46.566406 49.894531 45.964844 49.601562 C 44.464844 48.863281 43.558594 47.511719 43.429688 45.8125 C 43.269531 43.492188 44.363281 41.707031 46.390625 40.980469 C 47.425781 40.617188 49.203125 40.703125 50.183594 41.167969 Z M 50.183594 41.167969 " fill-opacity="1" fill-rule="nonzero"/></g><path fill="#19ff81" d="M 16.558594 29.117188 L 16.558594 31.441406 L 11.890625 31.441406 L 11.890625 33.761719 L 16.558594 33.761719 L 16.558594 38.410156 L 18.890625 38.410156 L 18.890625 33.761719 L 23.558594 33.761719 L 23.558594 31.441406 L 18.890625 31.441406 L 18.890625 26.792969 L 16.558594 26.792969 Z M 16.558594 29.117188 " fill-opacity="1" fill-rule="nonzero"/><path fill="#19ff81" d="M 56.527344 25.894531 C 55.332031 26.546875 54.792969 27.855469 55.332031 28.828125 C 55.988281 30.015625 57.300781 30.554688 58.277344 30.015625 C 59.472656 29.363281 60.011719 28.058594 59.472656 27.085938 C 58.816406 25.894531 57.503906 25.355469 56.527344 25.894531 Z M 56.527344 25.894531 " fill-opacity="1" fill-rule="nonzero"/><path fill="#19ff81" d="M 51.859375 30.539062 C 50.664062 31.195312 50.125 32.5 50.664062 33.472656 C 51.320312 34.664062 52.632812 35.199219 53.609375 34.664062 C 54.804688 34.011719 55.34375 32.703125 54.804688 31.730469 C 54.148438 30.539062 52.835938 30.003906 51.859375 30.539062 Z M 51.859375 30.539062 " fill-opacity="1" fill-rule="nonzero"/><path fill="#19ff81" d="M 61.195312 30.539062 C 60 31.195312 59.457031 32.5 60 33.472656 C 60.65625 34.664062 61.96875 35.199219 62.945312 34.664062 C 64.140625 34.011719 64.679688 32.703125 64.140625 31.730469 C 63.484375 30.539062 62.171875 30.003906 61.195312 30.539062 Z M 61.195312 30.539062 " fill-opacity="1" fill-rule="nonzero"/><path fill="#19ff81" d="M 56.527344 35.183594 C 55.332031 35.839844 54.792969 37.144531 55.332031 38.117188 C 55.988281 39.308594 57.300781 39.847656 58.277344 39.308594 C 59.472656 38.65625 60.011719 37.347656 59.472656 36.375 C 58.816406 35.183594 57.503906 34.648438 56.527344 35.183594 Z M 56.527344 35.183594 " fill-opacity="1" fill-rule="nonzero"/><path fill="#19ff81" d="M 34.0625 29.117188 L 34.0625 30.277344 L 36.398438 30.277344 L 36.398438 27.957031 L 34.0625 27.957031 Z M 34.0625 29.117188 " fill-opacity="1" fill-rule="nonzero"/><path fill="#19ff81" d="M 38.730469 29.117188 L 38.730469 30.277344 L 41.0625 30.277344 L 41.0625 27.957031 L 38.730469 27.957031 Z M 38.730469 29.117188 " fill-opacity="1" fill-rule="nonzero"/><path fill="#19ff81" d="M 36.398438 40.730469 L 36.398438 41.894531 L 38.730469 41.894531 L 38.730469 39.570312 L 36.398438 39.570312 Z M 36.398438 40.730469 " fill-opacity="1" fill-rule="nonzero"/></svg>