<svg xmlns="http://www.w3.org/2000/svg" xmlns:xlink="http://www.w3.org/1999/xlink" width="100" zoomAndPan="magnify" viewBox="0 0 75 74.999997" height="100" preserveAspectRatio="xMidYMid meet" version="1.0"><defs><clipPath id="id1"><path d="M 0 1.773438 L 75 1.773438 L 75 73.226562 L 0 73.226562 Z M 0 1.773438 " clip-rule="nonzero"/></clipPath></defs><g clip-path="url(#id1)"><path fill="#19ff81" d="M 38.738281 2.472656 L 49.351562 23.960938 C 49.515625 24.339844 49.890625 24.605469 50.324219 24.660156 L 74.082031 28.097656 C 75.105469 28.257812 75.539062 29.550781 74.785156 30.246094 L 57.597656 46.957031 C 57.273438 47.222656 57.164062 47.652344 57.21875 48.082031 L 61.261719 71.722656 C 61.421875 72.742188 60.34375 73.546875 59.429688 73.0625 L 38.144531 61.890625 C 37.769531 61.675781 37.339844 61.675781 36.960938 61.890625 L 15.679688 73.0625 C 14.761719 73.546875 13.683594 72.742188 13.847656 71.722656 L 17.886719 48.082031 C 17.941406 47.652344 17.832031 47.277344 17.511719 46.957031 L 0.378906 30.246094 C -0.378906 29.496094 0.0546875 28.257812 1.078125 28.097656 L 24.839844 24.660156 C 25.269531 24.605469 25.59375 24.339844 25.808594 23.960938 L 36.421875 2.472656 C 36.90625 1.558594 38.253906 1.558594 38.738281 2.472656 Z M 38.738281 2.472656 " fill-opacity="1" fill-rule="nonzero"/></g></svg>