<svg xmlns="http://www.w3.org/2000/svg" xmlns:xlink="http://www.w3.org/1999/xlink" width="100" zoomAndPan="magnify" viewBox="0 0 75 74.999997" height="100" preserveAspectRatio="xMidYMid meet" version="1.0"><defs><clipPath id="id1"><path d="M 0 2.417969 L 36.75 2.417969 L 36.75 72.582031 L 0 72.582031 Z M 0 2.417969 " clip-rule="nonzero"/></clipPath></defs><g clip-path="url(#id1)"><path fill="#19ff81" d="M 38.039062 3.105469 L 48.460938 24.207031 C 48.617188 24.578125 48.988281 24.839844 49.410156 24.894531 L 72.742188 28.269531 C 73.746094 28.425781 74.171875 29.691406 73.429688 30.378906 L 56.554688 46.785156 C 56.234375 47.046875 56.128906 47.46875 56.183594 47.890625 L 60.152344 71.101562 C 60.308594 72.105469 59.25 72.894531 58.351562 72.421875 L 37.457031 61.449219 C 37.085938 61.238281 36.660156 61.238281 36.292969 61.449219 L 15.394531 72.421875 C 14.496094 72.894531 13.4375 72.105469 13.597656 71.101562 L 17.5625 47.890625 C 17.617188 47.46875 17.511719 47.101562 17.195312 46.785156 L 0.371094 30.378906 C -0.371094 29.640625 0.0546875 28.425781 1.058594 28.269531 L 24.386719 24.894531 C 24.8125 24.839844 25.128906 24.578125 25.339844 24.207031 L 35.761719 3.105469 C 36.238281 2.210938 37.5625 2.210938 38.039062 3.105469 Z M 38.039062 3.105469 " fill-opacity="1" fill-rule="nonzero"/></g></svg>