<svg xmlns="http://www.w3.org/2000/svg" xmlns:xlink="http://www.w3.org/1999/xlink" width="100" zoomAndPan="magnify" viewBox="0 0 75 74.999997" height="100" preserveAspectRatio="xMidYMid meet" version="1.0"><path fill="#19ff81" d="M 27.917969 57.507812 C 27.917969 57.507812 25.078125 59.164062 29.941406 59.722656 C 35.835938 60.394531 38.847656 60.296875 45.339844 59.066406 C 45.339844 59.066406 47.046875 60.136719 49.433594 61.066406 C 34.875 67.304688 16.484375 60.703125 27.917969 57.507812 " fill-opacity="1" fill-rule="nonzero"/><path fill="#19ff81" d="M 26.140625 49.367188 C 26.140625 49.367188 22.953125 51.726562 27.820312 52.230469 C 34.113281 52.878906 39.085938 52.933594 47.691406 51.273438 C 47.691406 51.273438 48.878906 52.484375 50.75 53.140625 C 33.148438 58.289062 13.542969 53.546875 26.140625 49.367188 " fill-opacity="1" fill-rule="nonzero"/><path fill="#00e091" d="M 41.136719 35.554688 C 44.722656 39.6875 40.195312 43.402344 40.195312 43.402344 C 40.195312 43.402344 49.304688 38.699219 45.121094 32.808594 C 41.210938 27.320312 38.21875 24.589844 54.4375 15.183594 C 54.4375 15.183594 28.976562 21.542969 41.136719 35.554688 " fill-opacity="1" fill-rule="nonzero"/><path fill="#19ff81" d="M 60.390625 63.53125 C 60.390625 63.53125 62.496094 65.265625 58.078125 66.605469 C 49.671875 69.152344 23.097656 69.921875 15.71875 66.707031 C 13.0625 65.554688 18.039062 63.953125 19.605469 63.613281 C 21.238281 63.261719 22.171875 63.328125 22.171875 63.328125 C 19.21875 61.246094 3.097656 67.40625 13.980469 69.171875 C 43.664062 73.984375 68.09375 67.003906 60.390625 63.53125 " fill-opacity="1" fill-rule="nonzero"/><path fill="#19ff81" d="M 29.285156 40.929688 C 29.285156 40.929688 15.769531 44.140625 24.5 45.304688 C 28.183594 45.800781 35.535156 45.6875 42.378906 45.113281 C 47.972656 44.640625 53.589844 43.640625 53.589844 43.640625 C 53.589844 43.640625 51.617188 44.484375 50.191406 45.457031 C 36.460938 49.070312 9.945312 47.390625 17.578125 43.695312 C 24.035156 40.578125 29.285156 40.929688 29.285156 40.929688 " fill-opacity="1" fill-rule="nonzero"/><path fill="#19ff81" d="M 53.535156 54.484375 C 67.488281 47.234375 61.035156 40.265625 56.53125 41.203125 C 55.429688 41.433594 54.933594 41.632812 54.933594 41.632812 C 54.933594 41.632812 55.34375 40.992188 56.128906 40.710938 C 65.035156 37.582031 71.886719 49.949219 53.25 54.847656 C 53.25 54.847656 53.46875 54.65625 53.535156 54.484375 " fill-opacity="1" fill-rule="nonzero"/><path fill="#00e091" d="M 45.121094 -0.0078125 C 45.121094 -0.0078125 52.847656 7.722656 37.789062 19.609375 C 25.71875 29.144531 35.039062 34.582031 37.785156 40.792969 C 30.738281 34.4375 25.566406 28.835938 29.035156 23.628906 C 34.128906 15.980469 48.238281 12.273438 45.121094 -0.0078125 " fill-opacity="1" fill-rule="nonzero"/><path fill="#19ff81" d="M 30.65625 74.132812 C 44.050781 74.988281 64.617188 73.65625 65.101562 67.320312 C 65.101562 67.320312 64.167969 69.71875 54.035156 71.628906 C 42.601562 73.777344 28.503906 73.527344 20.140625 72.148438 C 20.140625 72.148438 21.851562 73.566406 30.65625 74.132812 " fill-opacity="1" fill-rule="nonzero"/></svg>