<svg xmlns="http://www.w3.org/2000/svg" xmlns:xlink="http://www.w3.org/1999/xlink" width="100" zoomAndPan="magnify" viewBox="0 0 75 74.999997" height="100" preserveAspectRatio="xMidYMid meet" version="1.0"><defs><clipPath id="id1"><path d="M 43 0 L 66.816406 0 L 66.816406 75 L 43 75 Z M 43 0 " clip-rule="nonzero"/></clipPath><clipPath id="id2"><path d="M 8.316406 0 L 32 0 L 32 75 L 8.316406 75 Z M 8.316406 0 " clip-rule="nonzero"/></clipPath></defs><g clip-path="url(#id1)"><path fill="#19ff81" d="M 45.921875 8.332031 L 43.832031 8.332031 L 43.832031 0 L 45.921875 0 C 52.84375 0 58.453125 5.597656 58.453125 12.5 L 58.453125 27.082031 C 58.453125 28.394531 59.070312 29.628906 60.121094 30.417969 L 65.132812 34.167969 C 66.136719 34.917969 66.75 36.078125 66.800781 37.328125 C 66.855469 38.578125 66.339844 39.785156 65.402344 40.613281 L 59.855469 45.535156 C 58.960938 46.324219 58.453125 47.457031 58.453125 48.648438 L 58.453125 62.5 C 58.453125 69.402344 52.84375 75 45.921875 75 L 43.832031 75 L 43.832031 66.667969 L 45.921875 66.667969 C 48.226562 66.667969 50.097656 64.800781 50.097656 62.5 L 50.097656 48.648438 C 50.097656 45.078125 51.628906 41.675781 54.304688 39.304688 L 56.03125 37.773438 L 55.109375 37.082031 C 51.957031 34.722656 50.097656 31.019531 50.097656 27.082031 L 50.097656 12.5 C 50.097656 10.199219 48.226562 8.332031 45.921875 8.332031 Z M 45.921875 8.332031 " fill-opacity="1" fill-rule="evenodd"/></g><g clip-path="url(#id2)"><path fill="#19ff81" d="M 29.214844 8.332031 L 31.304688 8.332031 L 31.304688 0 L 29.214844 0 C 22.292969 0 16.683594 5.597656 16.683594 12.5 L 16.683594 27.082031 C 16.683594 28.394531 16.066406 29.628906 15.015625 30.417969 L 10 34.167969 C 9 34.917969 8.386719 36.078125 8.335938 37.328125 C 8.28125 38.578125 8.796875 39.785156 9.734375 40.613281 L 15.28125 45.535156 C 16.175781 46.324219 16.683594 47.457031 16.683594 48.648438 L 16.683594 62.5 C 16.683594 69.402344 22.292969 75 29.214844 75 L 31.304688 75 L 31.304688 66.667969 L 29.214844 66.667969 C 26.90625 66.667969 25.039062 64.800781 25.039062 62.5 L 25.039062 48.648438 C 25.039062 45.078125 23.507812 41.675781 20.832031 39.304688 L 19.105469 37.773438 L 20.027344 37.082031 C 23.179688 34.722656 25.039062 31.019531 25.039062 27.082031 L 25.039062 12.5 C 25.039062 10.199219 26.90625 8.332031 29.214844 8.332031 Z M 29.214844 8.332031 " fill-opacity="1" fill-rule="evenodd"/></g></svg>