<svg xmlns="http://www.w3.org/2000/svg" xmlns:xlink="http://www.w3.org/1999/xlink" width="100" zoomAndPan="magnify" viewBox="0 0 75 74.999997" height="100" preserveAspectRatio="xMidYMid meet" version="1.0"><defs><clipPath id="id1"><path d="M 10.910156 14 L 64.160156 14 L 64.160156 75 L 10.910156 75 Z M 10.910156 14 " clip-rule="nonzero"/></clipPath></defs><g clip-path="url(#id1)"><path fill="#19ff81" d="M 37.511719 74.996094 L 15.785156 68.972656 L 10.941406 14.738281 L 64.144531 14.738281 L 59.300781 68.964844 Z M 37.511719 74.996094 " fill-opacity="1" fill-rule="nonzero"/></g><path fill="#19ff81" d="M 55.148438 65.511719 L 59.292969 19.175781 L 37.542969 19.171875 L 37.542969 70.386719 Z M 55.148438 65.511719 " fill-opacity="1" fill-rule="nonzero"/><path fill="#00735c" d="M 22.042969 39.289062 L 22.640625 45.9375 L 37.542969 45.9375 L 37.542969 39.289062 Z M 22.042969 39.289062 " fill-opacity="1" fill-rule="nonzero"/><path fill="#00735c" d="M 20.84375 25.824219 L 21.449219 32.476562 L 37.542969 32.476562 L 37.542969 25.824219 Z M 20.84375 25.824219 " fill-opacity="1" fill-rule="nonzero"/><path fill="#00735c" d="M 37.542969 56.5625 L 37.515625 56.570312 L 30.097656 54.570312 L 29.625 49.265625 L 22.9375 49.265625 L 23.871094 59.710938 L 37.511719 63.492188 L 37.542969 63.484375 Z M 37.542969 56.5625 " fill-opacity="1" fill-rule="nonzero"/><path fill="#19ff81" d="M 23.464844 0 L 31.53125 0 L 31.53125 3.367188 L 26.835938 3.367188 L 26.835938 6.738281 L 31.53125 6.738281 L 31.53125 10.105469 L 23.464844 10.105469 Z M 23.464844 0 " fill-opacity="1" fill-rule="nonzero"/><path fill="#19ff81" d="M 33.144531 0 L 41.210938 0 L 41.210938 2.929688 L 36.519531 2.929688 L 36.519531 3.515625 L 41.210938 3.515625 L 41.210938 10.253906 L 33.144531 10.253906 L 33.144531 7.175781 L 37.839844 7.175781 L 37.839844 6.589844 L 33.144531 6.589844 Z M 33.144531 0 " fill-opacity="1" fill-rule="nonzero"/><path fill="#19ff81" d="M 42.824219 0 L 50.890625 0 L 50.890625 2.929688 L 46.199219 2.929688 L 46.199219 3.515625 L 50.890625 3.515625 L 50.890625 10.253906 L 42.824219 10.253906 L 42.824219 7.175781 L 47.515625 7.175781 L 47.515625 6.589844 L 42.824219 6.589844 Z M 42.824219 0 " fill-opacity="1" fill-rule="nonzero"/><path fill="#00735c" d="M 53.003906 39.289062 L 54.207031 25.824219 L 37.523438 25.824219 L 37.523438 32.476562 L 46.90625 32.476562 L 46.300781 39.289062 L 37.523438 39.289062 L 37.523438 45.9375 L 45.722656 45.9375 L 44.949219 54.566406 L 37.523438 56.570312 L 37.523438 63.488281 L 51.175781 59.710938 L 51.277344 58.585938 L 52.839844 41.074219 Z M 53.003906 39.289062 " fill-opacity="1" fill-rule="nonzero"/></svg>