<svg xmlns="http://www.w3.org/2000/svg" xmlns:xlink="http://www.w3.org/1999/xlink" width="100" zoomAndPan="magnify" viewBox="0 0 75 74.999997" height="100" preserveAspectRatio="xMidYMid meet" version="1.0"><defs><clipPath id="id1"><path d="M 0 25.839844 L 75 25.839844 L 75 49.089844 L 0 49.089844 Z M 0 25.839844 " clip-rule="nonzero"/></clipPath></defs><g clip-path="url(#id1)"><path fill="#19ff81" d="M 11.859375 33.441406 C 11.859375 31.316406 10.144531 29.605469 8.050781 29.605469 L 6.160156 29.605469 L 6.160156 37.242188 L 8.050781 37.242188 C 8.554688 37.242188 9.039062 37.144531 9.507812 36.949219 C 9.972656 36.753906 10.382812 36.480469 10.738281 36.125 C 11.097656 35.769531 11.371094 35.359375 11.566406 34.894531 C 11.761719 34.429688 11.859375 33.945312 11.859375 33.441406 M 20.453125 48.664062 L 13.519531 48.664062 L 8.011719 41.042969 L 6.160156 41.042969 L 6.160156 48.648438 L 0.0507812 48.648438 L 0.0507812 25.800781 L 8.804688 25.800781 C 13.851562 25.800781 17.972656 29.222656 17.972656 33.4375 C 17.972656 36.003906 16.394531 38.300781 13.988281 39.703125 L 20.453125 48.664062 M 27.34375 34.804688 C 25.730469 34.804688 24.359375 36.996094 24.359375 39.703125 C 24.359375 42.414062 25.730469 44.605469 27.34375 44.605469 C 28.992188 44.605469 30.367188 42.414062 30.367188 39.703125 C 30.367188 36.992188 28.996094 34.804688 27.34375 34.804688 M 36.753906 39.703125 C 36.753906 44.878906 32.535156 49.023438 27.34375 49.023438 C 22.15625 49.023438 17.972656 44.878906 17.972656 39.703125 C 17.972656 34.53125 22.160156 30.386719 27.34375 30.386719 C 32.53125 30.386719 36.753906 34.53125 36.753906 39.703125 M 51.09375 30.765625 L 44.058594 37.789062 L 44.058594 30.742188 L 37.949219 30.742188 L 37.949219 48.648438 L 44.058594 48.648438 L 44.058594 41.382812 L 51.410156 48.648438 L 59.101562 48.648438 L 49.761719 39.328125 L 57.488281 31.621094 L 57.488281 42.246094 C 57.488281 45.773438 59.613281 49.03125 64.976562 49.03125 C 67.519531 49.03125 69.851562 47.589844 70.984375 46.289062 L 73.734375 48.652344 L 75.039062 48.652344 L 75.039062 30.769531 L 68.929688 30.769531 L 68.929688 42.347656 C 68.242188 43.546875 67.28125 44.300781 65.800781 44.300781 C 64.296875 44.300781 63.605469 43.410156 63.605469 40.566406 L 63.605469 30.777344 Z M 51.09375 30.765625 " fill-opacity="1" fill-rule="nonzero"/></g></svg>