<svg xmlns="http://www.w3.org/2000/svg" xmlns:xlink="http://www.w3.org/1999/xlink" width="100" zoomAndPan="magnify" viewBox="0 0 75 74.999997" height="100" preserveAspectRatio="xMidYMid meet" version="1.0"><defs><clipPath id="id1"><path d="M 0.386719 1.964844 L 74.636719 1.964844 L 74.636719 73.214844 L 0.386719 73.214844 Z M 0.386719 1.964844 " clip-rule="nonzero"/></clipPath></defs><g clip-path="url(#id1)"><path fill="#19ff81" d="M 72.402344 53.289062 C 72.347656 53.320312 72.246094 53.359375 72.105469 53.359375 L 66.953125 53.359375 C 66.816406 53.359375 66.710938 53.320312 66.660156 53.289062 L 66.660156 52.355469 C 66.664062 52.351562 66.675781 52.347656 66.683594 52.34375 L 71.878906 52.34375 C 72.019531 52.34375 72.152344 52.328125 72.285156 52.304688 C 72.335938 52.320312 72.375 52.335938 72.402344 52.355469 Z M 69.933594 63.242188 L 40.875 70.996094 C 40.875 70.984375 40.878906 70.96875 40.878906 70.957031 L 40.878906 35.351562 C 40.878906 35.324219 40.875 35.300781 40.875 35.273438 L 69.558594 27.617188 L 69.9375 27.617188 C 69.507812 30.707031 69.171875 33.570312 68.914062 36.3125 L 66.101562 36.3125 C 64.757812 36.3125 63.664062 37.410156 63.664062 38.753906 L 63.664062 40.554688 C 63.664062 41.070312 63.824219 41.550781 64.097656 41.945312 C 63.824219 42.339844 63.664062 42.816406 63.664062 43.332031 L 63.664062 45.132812 C 63.664062 45.601562 63.800781 46.039062 64.03125 46.414062 C 63.609375 46.851562 63.351562 47.445312 63.351562 48.097656 L 63.351562 49.898438 C 63.351562 50.875 63.925781 51.714844 64.753906 52.109375 C 64.75 52.15625 64.742188 52.207031 64.742188 52.253906 L 64.742188 53.386719 C 64.742188 54.449219 65.714844 55.28125 66.953125 55.28125 L 68.621094 55.28125 C 68.867188 58.207031 69.269531 60.667969 69.933594 63.242188 Z M 38.589844 71.296875 L 35.671875 71.296875 C 35.46875 71.296875 35.296875 71.140625 35.296875 70.957031 L 35.296875 35.351562 C 35.296875 35.167969 35.46875 35.011719 35.671875 35.011719 L 36.078125 35.011719 L 36.320312 35.09375 L 36.347656 35.011719 L 36.660156 35.011719 L 36.6875 35.09375 L 36.929688 35.011719 L 38.589844 35.011719 C 38.726562 35.011719 38.847656 35.082031 38.910156 35.183594 L 38.910156 71.125 C 38.847656 71.226562 38.726562 71.296875 38.589844 71.296875 Z M 33.382812 71.007812 L 4.273438 63.242188 C 4.90625 60.726562 5.355469 57.925781 5.617188 54.902344 L 8.070312 54.902344 C 9.308594 54.902344 10.277344 54.070312 10.277344 53.011719 L 10.277344 51.878906 C 10.277344 51.828125 10.273438 51.777344 10.269531 51.730469 C 11.097656 51.339844 11.671875 50.496094 11.671875 49.523438 L 11.671875 47.722656 C 11.671875 47.066406 11.414062 46.472656 10.992188 46.035156 C 11.222656 45.664062 11.359375 45.222656 11.359375 44.753906 L 11.359375 42.953125 C 11.359375 42.4375 11.199219 41.960938 10.925781 41.566406 C 11.199219 41.171875 11.359375 40.695312 11.359375 40.179688 L 11.359375 38.378906 C 11.359375 37.03125 10.265625 35.933594 8.921875 35.933594 L 5.261719 35.933594 C 5.007812 33.304688 4.679688 30.558594 4.269531 27.605469 C 4.351562 27.601562 4.429688 27.589844 4.503906 27.578125 L 33.382812 35.285156 Z M 2.621094 52.910156 L 2.621094 51.976562 C 2.648438 51.960938 2.6875 51.941406 2.738281 51.925781 C 2.871094 51.949219 3.007812 51.964844 3.144531 51.964844 L 8.339844 51.964844 C 8.347656 51.96875 8.359375 51.972656 8.363281 51.976562 L 8.363281 52.910156 C 8.3125 52.945312 8.207031 52.984375 8.070312 52.984375 L 5.117188 52.984375 L 3.851562 52.890625 L 3.84375 52.984375 L 2.917969 52.984375 C 2.777344 52.984375 2.675781 52.945312 2.621094 52.910156 Z M 2.832031 45.277344 C 2.550781 45.277344 2.308594 45.039062 2.308594 44.753906 L 2.308594 42.953125 C 2.308594 42.8125 2.367188 42.683594 2.460938 42.589844 C 2.582031 42.609375 2.707031 42.621094 2.832031 42.621094 L 8.921875 42.621094 C 9.050781 42.621094 9.171875 42.609375 9.292969 42.589844 C 9.386719 42.683594 9.445312 42.8125 9.445312 42.953125 L 9.445312 44.753906 C 9.445312 45.039062 9.207031 45.277344 8.921875 45.277344 Z M 9.234375 47.195312 C 9.519531 47.195312 9.757812 47.4375 9.757812 47.722656 L 9.757812 49.523438 C 9.757812 49.804688 9.519531 50.046875 9.234375 50.046875 L 8.625 50.046875 C 8.445312 50.007812 8.261719 49.984375 8.070312 49.984375 L 2.917969 49.984375 C 2.914062 49.984375 2.914062 49.984375 2.910156 49.984375 C 2.742188 49.898438 2.621094 49.722656 2.621094 49.523438 L 2.621094 47.722656 C 2.621094 47.4375 2.859375 47.195312 3.144531 47.195312 Z M 2.308594 38.378906 C 2.308594 38.09375 2.550781 37.855469 2.832031 37.855469 L 3.515625 37.855469 L 3.519531 37.910156 L 4.125 37.855469 L 8.921875 37.855469 C 9.207031 37.855469 9.445312 38.09375 9.445312 38.378906 L 9.445312 40.179688 C 9.445312 40.320312 9.386719 40.449219 9.292969 40.542969 C 9.171875 40.523438 9.050781 40.511719 8.921875 40.511719 L 2.832031 40.511719 C 2.707031 40.511719 2.582031 40.523438 2.460938 40.542969 C 2.367188 40.449219 2.308594 40.320312 2.308594 40.179688 Z M 6.960938 25.164062 L 22.191406 30.3125 L 6.546875 26.140625 C 6.726562 25.824219 6.863281 25.492188 6.960938 25.164062 Z M 37.171875 32.902344 L 36.613281 33.089844 L 36.394531 33.089844 L 35.835938 32.902344 Z M 37.128906 3.878906 C 47.082031 3.878906 55.175781 11.992188 55.175781 21.964844 C 55.175781 22.972656 55.089844 23.984375 54.925781 24.976562 L 37.15625 30.984375 L 35.902344 30.984375 L 19.414062 25.410156 C 19.195312 24.277344 19.085938 23.121094 19.085938 21.964844 C 19.085938 11.992188 27.179688 3.878906 37.128906 3.878906 Z M 66.636719 26.414062 L 46.316406 31.835938 L 66.046875 25.164062 C 66.171875 25.589844 66.363281 26.027344 66.636719 26.414062 Z M 69.949219 27.550781 L 69.949219 27.515625 L 69.953125 27.511719 C 69.949219 27.527344 69.949219 27.539062 69.949219 27.550781 Z M 72.402344 49.898438 C 72.402344 50.101562 72.28125 50.277344 72.113281 50.363281 C 72.109375 50.363281 72.109375 50.363281 72.105469 50.363281 L 66.953125 50.363281 C 66.761719 50.363281 66.578125 50.386719 66.398438 50.425781 L 65.789062 50.425781 C 65.507812 50.425781 65.265625 50.183594 65.265625 49.898438 L 65.265625 48.097656 C 65.265625 47.816406 65.507812 47.574219 65.789062 47.574219 L 71.878906 47.574219 C 72.164062 47.574219 72.402344 47.816406 72.402344 48.097656 Z M 72.714844 43.332031 L 72.714844 45.132812 C 72.714844 45.417969 72.476562 45.65625 72.191406 45.65625 L 66.101562 45.65625 C 65.816406 45.65625 65.578125 45.417969 65.578125 45.132812 L 65.578125 43.332031 C 65.578125 43.191406 65.636719 43.0625 65.730469 42.96875 C 65.851562 42.988281 65.972656 43 66.101562 43 L 72.191406 43 C 72.316406 43 72.441406 42.988281 72.5625 42.96875 C 72.65625 43.0625 72.714844 43.191406 72.714844 43.332031 Z M 72.714844 38.753906 L 72.714844 40.554688 C 72.714844 40.695312 72.65625 40.824219 72.5625 40.921875 C 72.441406 40.902344 72.316406 40.890625 72.191406 40.890625 L 66.101562 40.890625 C 65.972656 40.890625 65.851562 40.902344 65.730469 40.921875 C 65.636719 40.824219 65.578125 40.695312 65.578125 40.554688 L 65.578125 38.753906 C 65.578125 38.472656 65.816406 38.230469 66.101562 38.230469 L 72.191406 38.230469 C 72.476562 38.230469 72.714844 38.472656 72.714844 38.753906 Z M 74.628906 38.753906 C 74.628906 37.410156 73.535156 36.3125 72.191406 36.3125 L 70.835938 36.3125 C 71.132812 33.203125 71.53125 29.933594 72.050781 26.351562 L 70.859375 25.285156 L 69.308594 25.699219 L 68.992188 25.699219 C 67.835938 25.699219 67.761719 23.941406 67.757812 23.871094 L 66.492188 22.988281 L 56.195312 26.46875 L 56.703125 25.890625 C 56.960938 24.605469 57.089844 23.28125 57.089844 21.964844 C 57.089844 10.933594 48.136719 1.960938 37.128906 1.960938 C 26.125 1.960938 17.171875 10.933594 17.171875 21.964844 C 17.171875 23.441406 17.332031 24.917969 17.65625 26.351562 L 18.175781 26.929688 L 6.511719 22.988281 L 5.25 23.867188 C 5.25 23.929688 5.191406 25.195312 4.476562 25.585938 L 3.351562 25.285156 L 2.15625 26.351562 C 2.65625 29.792969 3.042969 32.9375 3.335938 35.933594 L 2.832031 35.933594 C 1.488281 35.933594 0.394531 37.03125 0.394531 38.378906 L 0.394531 40.179688 C 0.394531 40.695312 0.554688 41.171875 0.828125 41.566406 C 0.554688 41.960938 0.394531 42.4375 0.394531 42.953125 L 0.394531 44.753906 C 0.394531 45.40625 0.652344 46 1.074219 46.441406 C 0.84375 46.8125 0.707031 47.25 0.707031 47.722656 L 0.707031 49.523438 C 0.707031 49.996094 0.84375 50.4375 1.078125 50.8125 C 0.84375 51.113281 0.707031 51.480469 0.707031 51.878906 L 0.707031 53.011719 C 0.707031 54.070312 1.675781 54.902344 2.917969 54.902344 L 3.695312 54.902344 C 3.410156 58.125 2.902344 61.070312 2.183594 63.664062 L 2.859375 64.847656 L 34.09375 73.183594 L 34.484375 72.882812 C 34.828125 73.09375 35.234375 73.21875 35.671875 73.21875 L 38.589844 73.21875 C 39.011719 73.21875 39.40625 73.101562 39.75 72.902344 L 40.113281 73.183594 L 71.351562 64.847656 L 72.027344 63.664062 C 71.261719 60.90625 70.808594 58.363281 70.542969 55.28125 L 72.105469 55.28125 C 73.347656 55.28125 74.316406 54.449219 74.316406 53.386719 L 74.316406 52.253906 C 74.316406 51.859375 74.179688 51.492188 73.945312 51.191406 C 74.179688 50.816406 74.316406 50.375 74.316406 49.898438 L 74.316406 48.097656 C 74.316406 47.628906 74.179688 47.191406 73.949219 46.816406 C 74.371094 46.378906 74.628906 45.785156 74.628906 45.132812 L 74.628906 43.332031 C 74.628906 42.816406 74.46875 42.339844 74.195312 41.945312 C 74.46875 41.550781 74.628906 41.070312 74.628906 40.554688 L 74.628906 38.753906 " fill-opacity="1" fill-rule="nonzero"/></g></svg>