<svg xmlns="http://www.w3.org/2000/svg" xmlns:xlink="http://www.w3.org/1999/xlink" width="100" zoomAndPan="magnify" viewBox="0 0 75 74.999997" height="100" preserveAspectRatio="xMidYMid meet" version="1.0"><defs><clipPath id="id1"><path d="M 1.140625 0.242188 L 73.890625 0.242188 L 73.890625 75 L 1.140625 75 Z M 1.140625 0.242188 " clip-rule="nonzero"/></clipPath></defs><g clip-path="url(#id1)"><path fill="#19ff81" d="M 37.617188 75.125 C 37.179688 75.128906 36.753906 75.0625 36.339844 74.925781 L 12.160156 66.839844 C 11.429688 66.597656 10.824219 66.179688 10.332031 65.589844 C 9.84375 64.996094 9.546875 64.320312 9.441406 63.558594 L 1.378906 4.953125 C 1.339844 4.667969 1.332031 4.378906 1.351562 4.09375 C 1.375 3.804688 1.425781 3.519531 1.507812 3.246094 C 1.589844 2.96875 1.699219 2.703125 1.839844 2.449219 C 1.976562 2.195312 2.140625 1.960938 2.332031 1.742188 C 2.519531 1.523438 2.730469 1.328125 2.960938 1.15625 C 3.191406 0.984375 3.4375 0.835938 3.699219 0.71875 C 3.964844 0.597656 4.234375 0.507812 4.515625 0.445312 C 4.796875 0.382812 5.082031 0.355469 5.371094 0.355469 L 69.859375 0.355469 C 70.148438 0.355469 70.429688 0.382812 70.714844 0.445312 C 70.996094 0.507812 71.265625 0.597656 71.527344 0.714844 C 71.789062 0.835938 72.035156 0.980469 72.265625 1.15625 C 72.496094 1.328125 72.707031 1.523438 72.898438 1.738281 C 73.085938 1.957031 73.25 2.191406 73.390625 2.445312 C 73.527344 2.699219 73.636719 2.964844 73.722656 3.238281 C 73.804688 3.515625 73.855469 3.796875 73.878906 4.085938 C 73.898438 4.375 73.890625 4.660156 73.851562 4.949219 L 65.789062 63.554688 C 65.6875 64.316406 65.390625 64.992188 64.898438 65.585938 C 64.410156 66.179688 63.800781 66.597656 63.070312 66.839844 L 38.890625 74.925781 C 38.476562 75.0625 38.050781 75.128906 37.617188 75.125 Z M 17.085938 59.96875 L 37.617188 66.824219 L 58.148438 59.953125 L 65.234375 8.4375 L 10.007812 8.4375 Z M 17.085938 59.96875 " fill-opacity="1" fill-rule="nonzero"/></g><path fill="#19ff81" d="M 31.570312 56.9375 C 30.933594 56.9375 30.332031 56.796875 29.765625 56.511719 L 21.707031 52.46875 C 21.46875 52.351562 21.246094 52.210938 21.035156 52.046875 C 20.828125 51.886719 20.636719 51.703125 20.460938 51.503906 C 20.289062 51.304688 20.136719 51.085938 20.003906 50.855469 C 19.875 50.625 19.765625 50.386719 19.683594 50.132812 C 19.597656 49.882812 19.539062 49.625 19.507812 49.359375 C 19.472656 49.097656 19.464844 48.832031 19.484375 48.566406 C 19.503906 48.300781 19.546875 48.042969 19.617188 47.785156 C 19.6875 47.53125 19.78125 47.28125 19.902344 47.046875 C 20.019531 46.808594 20.160156 46.585938 20.320312 46.375 C 20.484375 46.164062 20.664062 45.972656 20.867188 45.796875 C 21.066406 45.625 21.28125 45.472656 21.511719 45.339844 C 21.742188 45.210938 21.980469 45.101562 22.234375 45.019531 C 22.484375 44.933594 22.742188 44.875 23.003906 44.84375 C 23.265625 44.808594 23.53125 44.800781 23.796875 44.820312 C 24.058594 44.839844 24.320312 44.886719 24.574219 44.957031 C 24.828125 45.027344 25.074219 45.121094 25.3125 45.238281 L 27.539062 46.355469 L 27.539062 24.605469 L 19.476562 24.605469 C 19.214844 24.605469 18.953125 24.578125 18.691406 24.527344 C 18.433594 24.476562 18.179688 24.398438 17.9375 24.296875 C 17.691406 24.195312 17.460938 24.070312 17.238281 23.921875 C 17.019531 23.777344 16.816406 23.609375 16.628906 23.421875 C 16.441406 23.234375 16.273438 23.027344 16.128906 22.808594 C 15.980469 22.585938 15.855469 22.355469 15.753906 22.109375 C 15.652344 21.863281 15.578125 21.613281 15.523438 21.351562 C 15.472656 21.089844 15.449219 20.828125 15.449219 20.5625 C 15.449219 20.296875 15.472656 20.035156 15.523438 19.773438 C 15.578125 19.515625 15.652344 19.261719 15.753906 19.015625 C 15.855469 18.769531 15.980469 18.539062 16.128906 18.316406 C 16.273438 18.097656 16.441406 17.890625 16.628906 17.703125 C 16.816406 17.515625 17.019531 17.347656 17.238281 17.203125 C 17.460938 17.054688 17.691406 16.929688 17.9375 16.828125 C 18.179688 16.726562 18.433594 16.652344 18.691406 16.597656 C 18.953125 16.546875 19.214844 16.519531 19.476562 16.519531 L 31.570312 16.519531 C 31.835938 16.519531 32.097656 16.546875 32.355469 16.597656 C 32.617188 16.652344 32.867188 16.726562 33.113281 16.828125 C 33.355469 16.929688 33.589844 17.054688 33.808594 17.203125 C 34.027344 17.347656 34.234375 17.515625 34.417969 17.703125 C 34.605469 17.890625 34.773438 18.097656 34.921875 18.316406 C 35.066406 18.539062 35.191406 18.769531 35.292969 19.015625 C 35.394531 19.261719 35.472656 19.515625 35.523438 19.773438 C 35.574219 20.035156 35.601562 20.296875 35.601562 20.5625 L 35.601562 52.898438 C 35.601562 53.164062 35.574219 53.425781 35.523438 53.683594 C 35.472656 53.945312 35.394531 54.199219 35.292969 54.445312 C 35.191406 54.6875 35.066406 54.921875 34.921875 55.140625 C 34.773438 55.363281 34.605469 55.566406 34.417969 55.753906 C 34.234375 55.941406 34.027344 56.109375 33.808594 56.257812 C 33.589844 56.40625 33.355469 56.53125 33.113281 56.632812 C 32.867188 56.734375 32.617188 56.808594 32.355469 56.859375 C 32.097656 56.914062 31.835938 56.9375 31.570312 56.9375 Z M 31.570312 56.9375 " fill-opacity="1" fill-rule="nonzero"/><path fill="#19ff81" d="M 43.660156 56.9375 C 43.167969 56.9375 42.695312 56.851562 42.234375 56.675781 C 41.773438 56.5 41.359375 56.25 40.992188 55.921875 C 40.625 55.597656 40.328125 55.214844 40.097656 54.777344 C 39.871094 54.34375 39.726562 53.878906 39.664062 53.390625 C 39.605469 52.902344 39.632812 52.417969 39.75 51.9375 C 39.867188 51.457031 40.0625 51.015625 40.34375 50.609375 C 40.621094 50.203125 40.960938 49.859375 41.363281 49.578125 C 41.769531 49.296875 42.207031 49.097656 42.6875 48.976562 L 48.125 47.613281 L 49.089844 40.773438 L 45.675781 40.773438 C 45.28125 40.773438 44.886719 40.734375 44.496094 40.65625 C 44.109375 40.578125 43.730469 40.460938 43.363281 40.308594 C 42.996094 40.15625 42.648438 39.972656 42.316406 39.75 C 41.988281 39.527344 41.683594 39.277344 41.402344 38.996094 C 41.121094 38.714844 40.871094 38.410156 40.648438 38.078125 C 40.429688 37.746094 40.242188 37.398438 40.089844 37.027344 C 39.9375 36.660156 39.824219 36.28125 39.746094 35.890625 C 39.667969 35.5 39.628906 35.105469 39.628906 34.710938 L 39.628906 22.582031 C 39.628906 22.1875 39.667969 21.792969 39.746094 21.402344 C 39.824219 21.011719 39.9375 20.632812 40.089844 20.261719 C 40.242188 19.894531 40.429688 19.546875 40.648438 19.214844 C 40.871094 18.882812 41.121094 18.578125 41.402344 18.296875 C 41.683594 18.015625 41.988281 17.765625 42.316406 17.542969 C 42.648438 17.320312 42.996094 17.136719 43.363281 16.984375 C 43.730469 16.832031 44.109375 16.714844 44.496094 16.636719 C 44.886719 16.558594 45.28125 16.519531 45.675781 16.519531 L 55.753906 16.519531 C 56.015625 16.519531 56.277344 16.546875 56.539062 16.597656 C 56.796875 16.652344 57.050781 16.726562 57.292969 16.828125 C 57.539062 16.929688 57.773438 17.054688 57.992188 17.203125 C 58.210938 17.347656 58.414062 17.515625 58.601562 17.703125 C 58.789062 17.890625 58.957031 18.097656 59.105469 18.316406 C 59.25 18.539062 59.375 18.769531 59.476562 19.015625 C 59.578125 19.261719 59.652344 19.515625 59.707031 19.773438 C 59.757812 20.035156 59.78125 20.296875 59.78125 20.5625 C 59.78125 20.828125 59.757812 21.089844 59.707031 21.351562 C 59.652344 21.613281 59.578125 21.863281 59.476562 22.109375 C 59.375 22.355469 59.25 22.585938 59.105469 22.808594 C 58.957031 23.027344 58.789062 23.234375 58.601562 23.421875 C 58.414062 23.609375 58.210938 23.777344 57.992188 23.921875 C 57.773438 24.070312 57.539062 24.195312 57.292969 24.296875 C 57.050781 24.398438 56.796875 24.476562 56.539062 24.527344 C 56.277344 24.578125 56.015625 24.605469 55.753906 24.605469 L 47.691406 24.605469 L 47.691406 32.6875 L 51.410156 32.6875 C 51.808594 32.6875 52.203125 32.726562 52.589844 32.804688 C 52.980469 32.882812 53.359375 32.996094 53.726562 33.148438 C 54.09375 33.300781 54.441406 33.488281 54.769531 33.710938 C 55.101562 33.929688 55.40625 34.183594 55.6875 34.464844 C 55.96875 34.746094 56.21875 35.050781 56.4375 35.382812 C 56.660156 35.714844 56.84375 36.0625 56.996094 36.429688 C 57.148438 36.796875 57.265625 37.175781 57.339844 37.566406 C 57.417969 37.957031 57.457031 38.351562 57.457031 38.75 C 57.457031 39.042969 57.4375 39.335938 57.394531 39.625 L 55.710938 51.445312 C 55.65625 51.84375 55.542969 52.226562 55.371094 52.589844 C 55.203125 52.953125 54.984375 53.285156 54.714844 53.582031 C 54.445312 53.878906 54.140625 54.132812 53.796875 54.339844 C 53.453125 54.546875 53.089844 54.699219 52.699219 54.796875 L 44.636719 56.816406 C 44.316406 56.898438 43.992188 56.9375 43.660156 56.9375 Z M 49.417969 38.464844 Z M 49.417969 38.464844 " fill-opacity="1" fill-rule="nonzero"/></svg>