<svg xmlns="http://www.w3.org/2000/svg" xmlns:xlink="http://www.w3.org/1999/xlink" width="100" zoomAndPan="magnify" viewBox="0 0 75 74.999997" height="100" preserveAspectRatio="xMidYMid meet" version="1.0"><defs><clipPath id="id1"><path d="M 0 1.808594 L 37.5 1.808594 L 37.5 73.261719 L 0 73.261719 Z M 0 1.808594 " clip-rule="nonzero"/></clipPath><clipPath id="id2"><path d="M 0 0 L 75 0 L 75 74.25 L 0 74.25 Z M 0 0 " clip-rule="nonzero"/></clipPath></defs><g clip-path="url(#id1)"><path fill="#19ff81" d="M 38.738281 2.507812 L 49.351562 23.996094 C 49.515625 24.375 49.890625 24.640625 50.324219 24.695312 L 74.082031 28.132812 C 75.105469 28.292969 75.539062 29.585938 74.785156 30.28125 L 57.597656 46.992188 C 57.273438 47.257812 57.164062 47.6875 57.21875 48.117188 L 61.261719 71.757812 C 61.421875 72.777344 60.34375 73.582031 59.429688 73.097656 L 38.144531 61.925781 C 37.769531 61.710938 37.339844 61.710938 36.960938 61.925781 L 15.679688 73.097656 C 14.761719 73.582031 13.683594 72.777344 13.847656 71.757812 L 17.886719 48.117188 C 17.941406 47.6875 17.832031 47.3125 17.511719 46.992188 L 0.378906 30.28125 C -0.378906 29.53125 0.0546875 28.292969 1.078125 28.132812 L 24.839844 24.695312 C 25.269531 24.640625 25.59375 24.375 25.808594 23.996094 L 36.421875 2.507812 C 36.90625 1.59375 38.253906 1.59375 38.738281 2.507812 Z M 38.738281 2.507812 " fill-opacity="1" fill-rule="nonzero"/></g><g clip-path="url(#id2)"><path fill="#19ff81" d="M 61.695312 74.191406 L 37.59375 61.53125 L 13.492188 74.191406 L 18.09375 47.375 L -1.40625 28.371094 L 25.535156 24.457031 L 37.59375 0.0585938 L 49.652344 24.457031 L 76.59375 28.371094 L 57.09375 47.375 Z M 3.074219 29.835938 L 20.324219 46.640625 L 16.253906 70.386719 L 37.59375 59.175781 L 58.921875 70.386719 L 54.847656 46.640625 L 72.117188 29.835938 L 48.265625 26.375 L 37.59375 4.769531 L 26.925781 26.359375 Z M 3.074219 29.835938 " fill-opacity="1" fill-rule="nonzero"/></g></svg>