<svg xmlns="http://www.w3.org/2000/svg" xmlns:xlink="http://www.w3.org/1999/xlink" width="100" zoomAndPan="magnify" viewBox="0 0 75 74.999997" height="100" preserveAspectRatio="xMidYMid meet" version="1.0"><defs><clipPath id="id1"><path d="M 0 15.796875 L 75 15.796875 L 75 59.296875 L 0 59.296875 Z M 0 15.796875 " clip-rule="nonzero"/></clipPath></defs><g clip-path="url(#id1)"><path fill="#19ff81" d="M 73.8125 34.019531 C 73.238281 34.019531 72.761719 34.445312 72.675781 35 L 71.03125 35 L 71.03125 24.902344 C 71.03125 23.226562 69.675781 21.867188 68 21.867188 C 66.328125 21.867188 64.972656 23.226562 64.972656 24.902344 L 64.972656 35 L 64.1875 35 L 64.1875 20.007812 C 64.1875 17.683594 62.308594 15.796875 59.984375 15.796875 C 57.664062 15.796875 55.78125 17.683594 55.78125 20.007812 L 55.78125 35 L 19.21875 35 L 19.21875 20.007812 C 19.21875 17.683594 17.335938 15.796875 15.015625 15.796875 C 12.691406 15.796875 10.8125 17.683594 10.8125 20.007812 L 10.8125 35 L 10.027344 35 L 10.027344 24.902344 C 10.027344 23.226562 8.671875 21.867188 7 21.867188 C 5.324219 21.867188 3.96875 23.226562 3.96875 24.902344 L 3.96875 35 L 2.324219 35 C 2.238281 34.445312 1.761719 34.019531 1.1875 34.019531 C 0.554688 34.019531 0.0390625 34.535156 0.0390625 35.171875 L 0.0390625 39.921875 C 0.0390625 40.558594 0.554688 41.074219 1.1875 41.074219 C 1.761719 41.074219 2.238281 40.648438 2.324219 40.09375 L 3.96875 40.09375 L 3.96875 50.1875 C 3.96875 51.867188 5.324219 53.226562 7 53.226562 C 8.671875 53.226562 10.027344 51.867188 10.027344 50.1875 L 10.027344 40.09375 L 10.8125 40.09375 L 10.8125 55.082031 C 10.8125 57.410156 12.691406 59.296875 15.015625 59.296875 C 17.335938 59.296875 19.21875 57.410156 19.21875 55.082031 L 19.21875 40.09375 L 55.78125 40.09375 L 55.78125 55.082031 C 55.78125 57.410156 57.664062 59.296875 59.984375 59.296875 C 62.308594 59.296875 64.1875 57.410156 64.1875 55.082031 L 64.1875 40.09375 L 64.972656 40.09375 L 64.972656 50.1875 C 64.972656 51.867188 66.328125 53.226562 68 53.226562 C 69.675781 53.226562 71.03125 51.867188 71.03125 50.1875 L 71.03125 40.09375 L 72.675781 40.09375 C 72.761719 40.648438 73.238281 41.074219 73.8125 41.074219 C 74.445312 41.074219 74.960938 40.558594 74.960938 39.921875 L 74.960938 35.171875 C 74.960938 34.535156 74.445312 34.019531 73.8125 34.019531 Z M 73.8125 34.019531 " fill-opacity="1" fill-rule="nonzero"/></g></svg>