<svg xmlns="http://www.w3.org/2000/svg" xmlns:xlink="http://www.w3.org/1999/xlink" width="100" zoomAndPan="magnify" viewBox="0 0 75 74.999997" height="100" preserveAspectRatio="xMidYMid meet" version="1.0"><defs><clipPath id="id1"><path d="M 0 2.523438 L 75 2.523438 L 75 72.273438 L 0 72.273438 Z M 0 2.523438 " clip-rule="nonzero"/></clipPath></defs><path fill="#19ff81" d="M 45 34.882812 C 45.003906 35.375 44.960938 35.863281 44.867188 36.347656 C 44.773438 36.832031 44.632812 37.304688 44.449219 37.761719 C 44.261719 38.21875 44.03125 38.652344 43.757812 39.0625 C 43.484375 39.476562 43.175781 39.855469 42.824219 40.207031 C 42.476562 40.558594 42.097656 40.871094 41.6875 41.144531 C 41.277344 41.421875 40.84375 41.652344 40.386719 41.84375 C 39.929688 42.03125 39.457031 42.175781 38.972656 42.273438 C 38.488281 42.371094 37.996094 42.417969 37.503906 42.417969 C 37.007812 42.417969 36.519531 42.371094 36.03125 42.273438 C 35.546875 42.175781 35.078125 42.03125 34.621094 41.84375 C 34.164062 41.652344 33.730469 41.421875 33.316406 41.144531 C 32.90625 40.871094 32.527344 40.558594 32.179688 40.207031 C 31.832031 39.855469 31.519531 39.476562 31.246094 39.0625 C 30.972656 38.652344 30.746094 38.21875 30.558594 37.761719 C 30.371094 37.304688 30.230469 36.832031 30.136719 36.347656 C 30.042969 35.863281 30 35.375 30.003906 34.882812 C 30 34.386719 30.042969 33.898438 30.136719 33.414062 C 30.230469 32.929688 30.371094 32.460938 30.558594 32.003906 C 30.746094 31.546875 30.972656 31.113281 31.246094 30.699219 C 31.519531 30.289062 31.832031 29.90625 32.179688 29.558594 C 32.527344 29.207031 32.90625 28.894531 33.316406 28.617188 C 33.730469 28.34375 34.164062 28.109375 34.621094 27.921875 C 35.078125 27.730469 35.546875 27.589844 36.03125 27.492188 C 36.519531 27.394531 37.007812 27.347656 37.503906 27.347656 C 37.996094 27.347656 38.488281 27.394531 38.972656 27.492188 C 39.457031 27.589844 39.929688 27.730469 40.386719 27.921875 C 40.84375 28.109375 41.277344 28.34375 41.6875 28.617188 C 42.097656 28.894531 42.476562 29.207031 42.824219 29.558594 C 43.175781 29.90625 43.484375 30.289062 43.757812 30.699219 C 44.03125 31.113281 44.261719 31.546875 44.449219 32.003906 C 44.632812 32.460938 44.773438 32.929688 44.867188 33.414062 C 44.960938 33.898438 45.003906 34.386719 45 34.882812 Z M 45 34.882812 " fill-opacity="1" fill-rule="nonzero"/><g clip-path="url(#id1)"><path fill="#19ff81" d="M 18.773438 2.53125 C 7.570312 8.996094 0.00390625 21.054688 0.00390625 34.882812 L 26.253906 34.882812 C 26.253906 30.734375 28.523438 27.117188 31.882812 25.175781 Z M 56.234375 2.53125 L 43.128906 25.175781 C 46.484375 27.117188 48.75 30.738281 48.75 34.882812 L 75 34.882812 C 75 21.054688 67.4375 8.996094 56.234375 2.53125 Z M 43.121094 44.585938 C 41.464844 45.542969 39.554688 46.097656 37.503906 46.097656 C 35.457031 46.097656 33.539062 45.546875 31.882812 44.59375 L 18.773438 67.234375 C 24.289062 70.417969 30.675781 72.273438 37.503906 72.273438 C 44.332031 72.273438 50.714844 70.417969 56.230469 67.234375 Z M 43.121094 44.585938 " fill-opacity="1" fill-rule="nonzero"/></g></svg>