<svg xmlns="http://www.w3.org/2000/svg" xmlns:xlink="http://www.w3.org/1999/xlink" width="100" zoomAndPan="magnify" viewBox="0 0 75 74.999997" height="100" preserveAspectRatio="xMidYMid meet" version="1.0"><defs><clipPath id="id1"><path d="M 0.542969 4.882812 L 74.792969 4.882812 L 74.792969 70.132812 L 0.542969 70.132812 Z M 0.542969 4.882812 " clip-rule="nonzero"/></clipPath></defs><g clip-path="url(#id1)"><path fill="#19ff81" d="M 74.792969 26.613281 C 74.792969 14.625 65.03125 4.902344 52.988281 4.902344 C 47.015625 4.902344 41.605469 8.117188 37.667969 11.992188 C 33.730469 8.117188 28.316406 4.902344 22.34375 4.902344 C 10.300781 4.902344 0.542969 14.625 0.542969 26.613281 C 0.542969 31.71875 2.316406 36.40625 5.277344 40.113281 L 5.28125 40.121094 C 5.46875 40.359375 5.667969 40.59375 5.867188 40.824219 C 9.007812 44.574219 24.273438 57.710938 37.300781 70.136719 C 37.300781 70.136719 63.273438 50.132812 68.570312 42.179688 C 70.894531 38.691406 74.792969 32.125 74.792969 26.613281 " fill-opacity="1" fill-rule="nonzero"/></g><path fill="#ffffff" d="M 58.675781 12.671875 C 58.675781 12.671875 67.351562 15.78125 68.488281 23.28125 L 63.644531 26.722656 C 63.644531 26.722656 65.414062 18.464844 58.675781 12.671875 " fill-opacity="1" fill-rule="nonzero"/></svg>